<?xml version="1.0" encoding="UTF-8" standalone="no"?>
<!-- Created with Inkscape (http://www.inkscape.org/) -->

<svg
   xmlns:dc="http://purl.org/dc/elements/1.1/"
   xmlns:cc="http://creativecommons.org/ns#"
   xmlns:rdf="http://www.w3.org/1999/02/22-rdf-syntax-ns#"
   xmlns:svg="http://www.w3.org/2000/svg"
   xmlns="http://www.w3.org/2000/svg"
   xmlns:sodipodi="http://sodipodi.sourceforge.net/DTD/sodipodi-0.dtd"
   xmlns:inkscape="http://www.inkscape.org/namespaces/inkscape"
   width="200"
   height="200"
   viewBox="0 0 200.00001 200"
   id="svg4704"
   version="1.1"
   inkscape:version="0.91 r13725"
   sodipodi:docname="fond2.svg">
  <defs
     id="defs4706">
    <inkscape:path-effect
       effect="spiro"
       id="path-effect5418"
       is_visible="true" />
    <inkscape:path-effect
       effect="spiro"
       id="path-effect5408"
       is_visible="true" />
    <inkscape:path-effect
       effect="spiro"
       id="path-effect5404"
       is_visible="true" />
    <inkscape:path-effect
       effect="spiro"
       id="path-effect5400"
       is_visible="true" />
    <inkscape:path-effect
       effect="spiro"
       id="path-effect5396"
       is_visible="true" />
    <inkscape:perspective
       sodipodi:type="inkscape:persp3d"
       inkscape:vp_x="-574.97746 : -67.745019 : 0"
       inkscape:vp_y="29.440497 : 854.4602 : 1"
       inkscape:vp_z="-478.48004 : 70.731639 : 0"
       inkscape:persp3d-origin="820.81334 : 821.57432 : 1"
       id="perspective5342" />
    <inkscape:perspective
       sodipodi:type="inkscape:persp3d"
       inkscape:vp_x="-640.29548 : 515.81259 : 1"
       inkscape:vp_y="0 : 797.12604 : 0"
       inkscape:vp_z="-373.05733 : 725.06596 : 1"
       inkscape:persp3d-origin="408.61177 : 376.00169 : 1"
       id="perspective4784" />
    <inkscape:perspective
       sodipodi:type="inkscape:persp3d"
       inkscape:vp_x="265.99443 : 919.94575 : 1"
       inkscape:vp_y="0 : 999.99998 : 0"
       inkscape:vp_z="460.67687 : 850.25289 : 1"
       inkscape:persp3d-origin="372.04726 : 350.78738 : 1"
       id="perspective4712" />
  </defs>
  <sodipodi:namedview
     id="base"
     pagecolor="#ffffff"
     bordercolor="#666666"
     borderopacity="1.0"
     inkscape:pageopacity="0.0"
     inkscape:pageshadow="2"
     inkscape:zoom="2.53"
     inkscape:cx="68.379447"
     inkscape:cy="100"
     inkscape:document-units="px"
     inkscape:current-layer="layer1"
     showgrid="false"
     inkscape:window-width="1102"
     inkscape:window-height="707"
     inkscape:window-x="77"
     inkscape:window-y="0"
     inkscape:window-maximized="0"
     fit-margin-top="0"
     fit-margin-left="0"
     fit-margin-right="0"
     fit-margin-bottom="0"
     units="px" />
  <metadata
     id="metadata4709">
    <rdf:RDF>
      <cc:Work
         rdf:about="">
        <dc:format>image/svg+xml</dc:format>
        <dc:type
           rdf:resource="http://purl.org/dc/dcmitype/StillImage" />
        <dc:title></dc:title>
      </cc:Work>
    </rdf:RDF>
  </metadata>
  <g
     inkscape:label="Calque 1"
     inkscape:groupmode="layer"
     id="layer1"
     transform="translate(-269.76154,-101.98809)">
    <rect
       style="opacity:1;fill:#808000;fill-opacity:1;stroke:#000000;stroke-width:2;stroke-linecap:square;stroke-linejoin:round;stroke-miterlimit:4;stroke-dasharray:none;stroke-opacity:1"
       id="rect5372"
       width="0"
       height="0"
       x="404.2186"
       y="84.792984" />
    <path
       style="fill:#666666"
       d="m 282.12544,313.82315 c -1.29337,-0.53178 -2.74148,-1.8892 -4.91937,-4.61125 -2.31267,-2.8906 -3.368,-4.56043 -3.63602,-5.75353 -0.12305,-0.54776 -0.0529,-1.22595 0.17743,-1.71601 0.41218,-0.87689 3.2762,-3.36493 12.32456,-10.70673 1.2602,-1.02254 2.34755,-1.90515 2.41628,-1.96138 0.0992,-0.0811 0.41737,-0.0713 1.54143,0.0477 0.77907,0.0825 1.7424,0.15221 2.14088,0.15496 0.94325,0.007 1.1172,-0.12045 1.24896,-0.91152 0.11353,-0.68157 0.0203,-1.05205 -0.43208,-1.7181 -0.5575,-0.82075 -0.4221,-1.47338 0.48694,-2.34682 0.74161,-0.7126 1.64173,-1.18511 2.25432,-1.18344 0.67411,0.002 1.12513,0.32677 2.73562,1.97082 1.11307,1.13619 1.54737,1.5292 1.62474,1.47018 0.53355,-0.4067 13.62999,-10.9964 13.82631,-11.17985 0.0309,-0.0289 0.13691,-0.72731 0.23568,-1.55218 0.20119,-1.68077 0.31344,-2.02257 0.81176,-2.47137 0.94692,-0.85292 4.91076,-2.79564 8.30643,-4.07113 1.2444,-0.46743 2.16612,-0.69354 2.56627,-0.62955 1.0085,0.16126 2.3551,1.41471 2.70193,2.51502 0.19836,0.6293 0.075,1.48664 -0.33265,2.31118 -0.4017,0.81255 -1.7296,2.81024 -2.97169,4.47052 -2.05542,2.74742 -2.92365,3.70283 -3.71187,4.0844 -0.37382,0.18095 -0.45338,0.18743 -1.69411,0.13789 -0.71605,-0.0286 -1.48938,-0.074 -1.71848,-0.10083 l -0.4166,-0.0488 -2.83291,2.30344 c -8.85429,7.19946 -11.03995,8.98798 -11.03995,9.03392 0,0.028 0.43581,0.66848 0.96846,1.42323 1.86435,2.6418 2.03027,3.41062 0.98596,4.56809 -0.51144,0.56686 -1.4198,1.20712 -1.90552,1.34311 -0.5947,0.1665 -0.91884,0.0599 -1.50001,-0.49311 -0.65057,-0.61913 -0.75018,-0.66641 -1.53025,-0.72657 -0.60325,-0.0465 -0.66649,-0.0358 -0.88216,0.14972 -0.21086,0.18141 -0.25083,0.31104 -0.43329,1.40661 -0.40541,2.43464 -0.61682,3.01942 -1.3457,3.7221 -2.64919,2.55409 -12.21595,9.99111 -14.22937,11.06167 -0.52816,0.2808 -1.15111,0.28341 -1.82193,0.008 z"
       id="path5537"
       inkscape:connector-curvature="0"
       inkscape:export-xdpi="80"
       inkscape:export-ydpi="80" />
    <g
       id="g5667"
       transform="matrix(0.14941208,0,0,0.14941208,258.07232,127.22208)"
       style="fill:#666666"
       inkscape:export-xdpi="80"
       inkscape:export-ydpi="80">
      <g
         id="g5623"
         style="fill:#666666">
        <path
           id="path5625"
           d="m 235.143,17.081 -217.643,0 C 7.851,17.081 0,24.932 0,34.581 l 0,147.658 c 0,9.649 7.851,17.5 17.5,17.5 l 126.911,0 -3.832,23.37 c -0.721,4.399 0.734,8.384 3.893,10.658 3.158,2.274 7.396,2.396 11.341,0.317 l 27.381,-14.412 c 0.764,-0.392 2.869,-0.392 3.633,0 l 27.381,14.412 c 1.873,0.986 3.813,1.477 5.672,1.477 2.056,0 4.012,-0.601 5.67,-1.795 3.158,-2.274 4.613,-6.26 3.893,-10.659 l -3.831,-23.369 9.532,0 c 9.649,0 17.5,-7.851 17.5,-17.5 l 0,-147.657 c -0.001,-9.65 -7.852,-17.5 -17.501,-17.5 z m -50.132,152.662 c -16.817,0 -30.5,-13.683 -30.5,-30.5 0,-16.817 13.683,-30.5 30.5,-30.5 16.817,0 30.5,13.683 30.5,30.5 0,16.817 -13.683,30.5 -30.5,30.5 z m 8.803,36.656 c -5.101,-2.686 -12.506,-2.686 -17.606,0 l -19.358,10.189 6.154,-37.539 c 6.527,3.623 14.029,5.693 22.008,5.693 7.979,0 15.48,-2.071 22.008,-5.693 l 2.398,14.635 c 0.006,0.024 0.008,0.05 0.013,0.074 l 3.743,22.831 -19.36,-10.19 z m 43.829,-24.16 c 0,1.355 -1.145,2.5 -2.5,2.5 l -11.991,0 -2.739,-16.709 c -0.011,-0.066 -0.029,-0.129 -0.042,-0.195 6.335,-7.818 10.141,-17.768 10.141,-28.592 0,-25.089 -20.411,-45.5 -45.5,-45.5 -25.089,0 -45.5,20.411 -45.5,45.5 0,10.824 3.806,20.772 10.141,28.592 -0.013,0.065 -0.031,0.129 -0.042,0.194 l -2.741,16.723 c -0.084,-0.003 -0.165,-0.013 -0.249,-0.013 l -129.121,0 c -1.355,0 -2.5,-1.145 -2.5,-2.5 L 15,34.581 c 0,-1.355 1.145,-2.5 2.5,-2.5 l 217.643,0 c 1.355,0 2.5,1.145 2.5,2.5 l 0,147.658 z"
           style="fill:#666666"
           inkscape:connector-curvature="0" />
        <path
           id="path5627"
           d="m 208.619,60.243 -170,0 c -4.143,0 -7.5,3.357 -7.5,7.5 0,4.143 3.357,7.5 7.5,7.5 l 170,0 c 4.143,0 7.5,-3.357 7.5,-7.5 0,-4.143 -3.357,-7.5 -7.5,-7.5 z"
           style="fill:#666666"
           inkscape:connector-curvature="0" />
        <path
           id="path5629"
           d="m 110.619,100.911 -72,0 c -4.143,0 -7.5,3.357 -7.5,7.5 0,4.143 3.357,7.5 7.5,7.5 l 72,0 c 4.143,0 7.5,-3.357 7.5,-7.5 0,-4.143 -3.357,-7.5 -7.5,-7.5 z"
           style="fill:#666666"
           inkscape:connector-curvature="0" />
      </g>
      <g
         id="g5631"
         style="fill:#666666" />
      <g
         id="g5633"
         style="fill:#666666" />
      <g
         id="g5635"
         style="fill:#666666" />
      <g
         id="g5637"
         style="fill:#666666" />
      <g
         id="g5639"
         style="fill:#666666" />
      <g
         id="g5641"
         style="fill:#666666" />
      <g
         id="g5643"
         style="fill:#666666" />
      <g
         id="g5645"
         style="fill:#666666" />
      <g
         id="g5647"
         style="fill:#666666" />
      <g
         id="g5649"
         style="fill:#666666" />
      <g
         id="g5651"
         style="fill:#666666" />
      <g
         id="g5653"
         style="fill:#666666" />
      <g
         id="g5655"
         style="fill:#666666" />
      <g
         id="g5657"
         style="fill:#666666" />
      <g
         id="g5659"
         style="fill:#666666" />
    </g>
    <g
       id="g5829"
       transform="matrix(0.15321698,0,0,0.15321698,255.97704,161.10718)"
       style="fill:#666666"
       inkscape:export-xdpi="80"
       inkscape:export-ydpi="80">
      <g
         id="g5789"
         style="fill:#666666">
        <path
           id="path5791"
           d="m 289.052,191.691 -36.224,87.974 c -1.228,2.983 -4.017,5.033 -7.23,5.315 L 60.311,301.262 c -4.546,0.399 -7.996,4.266 -7.877,8.826 l 3.768,145.442 c 0.104,3.999 2.941,7.403 6.856,8.228 l 218.13,45.882 c 5.333,1.122 10.753,1.677 16.173,1.665 l 0.004,-43.135 0,-274.834 c -0.002,-12.006 -3.742,-12.746 -8.313,-1.645 z m -25.365,271.232 -81.886,-13.187 0,-42.921 81.886,0 0,56.108 z M 227.882,264.073 9.518,286.138 c -6.671,0.674 -11.532,-6.18 -8.69,-12.252 L 58.973,149.6 c 1.183,-2.529 3.516,-4.331 6.262,-4.835 l 239.934,-44.069 -70.262,158.29 c -1.258,2.833 -3.939,4.775 -7.025,5.087 z m 323.807,37.189 -185.286,-16.281 c -3.214,-0.282 -6.003,-2.332 -7.23,-5.315 l -36.225,-87.974 c -4.571,-11.102 -8.312,-10.362 -8.312,1.644 l 0,274.833 0.004,43.135 c 5.419,0.013 10.84,-0.543 16.174,-1.665 l 218.13,-45.882 c 3.915,-0.824 6.752,-4.229 6.855,-8.228 l 3.768,-145.441 c 0.119,-4.561 -3.333,-8.427 -7.878,-8.826 z m -76.252,77.686 -10.233,0.283 -0.207,64.406 c -0.009,2.837 -2.891,5.55 -6.475,6.065 l -16.771,2.412 c -3.831,0.551 -6.966,-1.412 -6.959,-4.392 l 0.156,-67.651 -11.705,0.324 c -5.691,0.157 -9.292,-4.406 -6.395,-8.183 l 27.837,-36.274 c 2.637,-3.438 9.109,-3.121 11.651,0.501 l 24.435,34.825 c 2.316,3.303 -0.613,7.552 -5.334,7.684 z m 127.044,-92.81 -218.364,-22.065 c -3.086,-0.312 -5.768,-2.254 -7.025,-5.088 l -70.261,-158.29 239.934,44.069 c 2.746,0.504 5.079,2.306 6.263,4.835 l 58.145,124.286 c 2.841,6.073 -2.021,12.927 -8.692,12.253 z"
           inkscape:connector-curvature="0"
           style="fill:#666666" />
      </g>
      <g
         id="g5793"
         style="fill:#666666" />
      <g
         id="g5795"
         style="fill:#666666" />
      <g
         id="g5797"
         style="fill:#666666" />
      <g
         id="g5799"
         style="fill:#666666" />
      <g
         id="g5801"
         style="fill:#666666" />
      <g
         id="g5803"
         style="fill:#666666" />
      <g
         id="g5805"
         style="fill:#666666" />
      <g
         id="g5807"
         style="fill:#666666" />
      <g
         id="g5809"
         style="fill:#666666" />
      <g
         id="g5811"
         style="fill:#666666" />
      <g
         id="g5813"
         style="fill:#666666" />
      <g
         id="g5815"
         style="fill:#666666" />
      <g
         id="g5817"
         style="fill:#666666" />
      <g
         id="g5819"
         style="fill:#666666" />
      <g
         id="g5821"
         style="fill:#666666" />
    </g>
    <g
       id="g5970"
       transform="matrix(0.13499981,0,0,0.13499981,378.88286,254.27349)"
       style="fill:#666666"
       inkscape:export-xdpi="80"
       inkscape:export-ydpi="80">
      <g
         id="g5930"
         style="fill:#666666">
        <path
           id="path5932"
           d="m 495.622,113.089 0,150.03 c 0,0 -32.11,6.326 -38.725,7.158 -6.594,0.83 -27.316,7.521 -42.334,-6.914 -23.16,-22.197 -105.447,-104.03 -105.447,-104.03 0,0 -14.188,-13.922 -36.969,-1.89 -20.912,11.022 -51.911,27.175 -64.859,33.465 -24.477,13.028 -44.764,-7.642 -44.764,-23.387 0,-12.213 7.621,-20.502 18.515,-26.598 29.524,-17.898 91.752,-52.827 117.67,-66.598 15.754,-8.379 27.105,-9.097 48.734,9.124 26.638,22.403 50.344,42.824 50.344,42.824 0,0 7.732,6.453 20.063,3.854 30.28,-6.402 77.772,-17.038 77.772,-17.038 z M 168.098,367.3 c 3.985,-10.238 2.653,-21.689 -4.987,-29.545 -6.865,-7.027 -16.888,-8.879 -26.445,-6.689 2.673,-9.479 1.197,-19.568 -5.705,-26.688 -6.886,-7.009 -16.89,-8.898 -26.446,-6.688 2.653,-9.465 1.181,-19.553 -5.725,-26.652 -10.814,-11.092 -29.519,-10.616 -41.807,1.097 -12.223,11.729 -20.053,32.979 -9.144,45.487 10.891,12.445 23.405,4.873 32.945,2.699 -2.654,9.465 -10.606,18.269 -0.813,30.658 9.784,12.395 23.404,4.875 32.954,2.721 -2.663,9.429 -10.268,19.117 -0.851,30.604 9.502,11.522 25.065,5.383 35.344,2.19 -3.967,10.199 -12.458,21.193 -1.549,33.513 10.892,12.409 36.063,6.668 48.358,-5.063 12.262,-11.729 13.439,-30.318 2.654,-41.445 -7.446,-7.634 -18.546,-9.41 -28.783,-6.199 z m 224.344,-78.054 c -88.88,-88.881 -47.075,-47.058 -94.906,-94.992 0,0 -14.375,-14.311 -33.321,-5.998 -13.3,5.828 -30.423,13.771 -43.307,19.835 -14.158,7.424 -24.347,9.722 -29.131,9.69 -27.37,-0.179 -49.576,-22.178 -49.576,-49.521 0,-17.738 9.417,-33.181 23.462,-41.947 19.75,-13.667 65.21,-37.847 65.21,-37.847 0,0 -13.849,-17.549 -44.187,-17.549 -30.329,0 -93.695,41.512 -93.695,41.512 0,0 -17.976,11.514 -43.601,1.143 L 0,96.373 0,268.05 c 0,0 14.103,4.082 26.775,9.258 2.862,-8.162 7.48,-15.699 13.886,-21.924 21.023,-20.024 55.869,-20.232 74.996,-0.537 5.762,5.987 9.783,13.129 11.835,21.024 7.707,2.379 14.688,6.593 20.298,12.373 5.779,5.947 9.785,13.129 11.854,20.984 7.698,2.381 14.669,6.611 20.298,12.395 6.339,6.537 10.562,14.433 12.534,22.988 8.047,2.344 15.319,6.705 21.176,12.693 11.495,11.807 15.575,27.826 13.103,43.278 0.02,0 0.058,0 0.076,0.035 0.188,0.246 7.122,7.976 11.446,12.336 8.474,8.482 22.311,8.482 30.811,0 8.444,-8.479 8.481,-22.289 0,-30.811 -0.304,-0.303 -30.572,-31.963 -28.136,-34.418 2.418,-2.438 40.981,37.688 41.699,38.422 8.463,8.465 22.291,8.465 30.792,0 8.481,-8.479 8.463,-22.289 0,-30.791 -0.416,-0.396 -2.152,-2.059 -2.796,-2.721 0,0 -38.234,-34.06 -35.324,-36.97 2.946,-2.928 50.438,41.392 50.515,41.392 8.537,7.688 21.687,7.631 29.9,-0.586 7.991,-7.99 8.162,-20.629 1.078,-29.146 -0.15,-0.453 -36.194,-38.121 -33.381,-40.955 2.854,-2.871 38.519,33.853 38.594,33.929 8.444,8.463 22.291,8.463 30.792,0 8.463,-8.464 8.463,-22.291 0,-30.83 -0.115,-0.072 -0.266,-0.148 -0.379,-0.222 z"
           style="fill:#666666"
           inkscape:connector-curvature="0" />
      </g>
      <g
         id="g5934"
         style="fill:#666666" />
      <g
         id="g5936"
         style="fill:#666666" />
      <g
         id="g5938"
         style="fill:#666666" />
      <g
         id="g5940"
         style="fill:#666666" />
      <g
         id="g5942"
         style="fill:#666666" />
      <g
         id="g5944"
         style="fill:#666666" />
      <g
         id="g5946"
         style="fill:#666666" />
      <g
         id="g5948"
         style="fill:#666666" />
      <g
         id="g5950"
         style="fill:#666666" />
      <g
         id="g5952"
         style="fill:#666666" />
      <g
         id="g5954"
         style="fill:#666666" />
      <g
         id="g5956"
         style="fill:#666666" />
      <g
         id="g5958"
         style="fill:#666666" />
      <g
         id="g5960"
         style="fill:#666666" />
      <g
         id="g5962"
         style="fill:#666666" />
    </g>
    <g
       inkscape:export-ydpi="80"
       inkscape:export-xdpi="80"
       style="fill:#666666"
       transform="matrix(0.14941208,0,0,0.14941208,458.07255,127.22208)"
       id="g4268">
      <g
         style="fill:#666666"
         id="g4270">
        <path
           inkscape:connector-curvature="0"
           style="fill:#666666"
           d="m 235.143,17.081 -217.643,0 C 7.851,17.081 0,24.932 0,34.581 l 0,147.658 c 0,9.649 7.851,17.5 17.5,17.5 l 126.911,0 -3.832,23.37 c -0.721,4.399 0.734,8.384 3.893,10.658 3.158,2.274 7.396,2.396 11.341,0.317 l 27.381,-14.412 c 0.764,-0.392 2.869,-0.392 3.633,0 l 27.381,14.412 c 1.873,0.986 3.813,1.477 5.672,1.477 2.056,0 4.012,-0.601 5.67,-1.795 3.158,-2.274 4.613,-6.26 3.893,-10.659 l -3.831,-23.369 9.532,0 c 9.649,0 17.5,-7.851 17.5,-17.5 l 0,-147.657 c -0.001,-9.65 -7.852,-17.5 -17.501,-17.5 z m -50.132,152.662 c -16.817,0 -30.5,-13.683 -30.5,-30.5 0,-16.817 13.683,-30.5 30.5,-30.5 16.817,0 30.5,13.683 30.5,30.5 0,16.817 -13.683,30.5 -30.5,30.5 z m 8.803,36.656 c -5.101,-2.686 -12.506,-2.686 -17.606,0 l -19.358,10.189 6.154,-37.539 c 6.527,3.623 14.029,5.693 22.008,5.693 7.979,0 15.48,-2.071 22.008,-5.693 l 2.398,14.635 c 0.006,0.024 0.008,0.05 0.013,0.074 l 3.743,22.831 -19.36,-10.19 z m 43.829,-24.16 c 0,1.355 -1.145,2.5 -2.5,2.5 l -11.991,0 -2.739,-16.709 c -0.011,-0.066 -0.029,-0.129 -0.042,-0.195 6.335,-7.818 10.141,-17.768 10.141,-28.592 0,-25.089 -20.411,-45.5 -45.5,-45.5 -25.089,0 -45.5,20.411 -45.5,45.5 0,10.824 3.806,20.772 10.141,28.592 -0.013,0.065 -0.031,0.129 -0.042,0.194 l -2.741,16.723 c -0.084,-0.003 -0.165,-0.013 -0.249,-0.013 l -129.121,0 c -1.355,0 -2.5,-1.145 -2.5,-2.5 L 15,34.581 c 0,-1.355 1.145,-2.5 2.5,-2.5 l 217.643,0 c 1.355,0 2.5,1.145 2.5,2.5 l 0,147.658 z"
           id="path4272" />
        <path
           inkscape:connector-curvature="0"
           style="fill:#666666"
           d="m 208.619,60.243 -170,0 c -4.143,0 -7.5,3.357 -7.5,7.5 0,4.143 3.357,7.5 7.5,7.5 l 170,0 c 4.143,0 7.5,-3.357 7.5,-7.5 0,-4.143 -3.357,-7.5 -7.5,-7.5 z"
           id="path4274" />
        <path
           inkscape:connector-curvature="0"
           style="fill:#666666"
           d="m 110.619,100.911 -72,0 c -4.143,0 -7.5,3.357 -7.5,7.5 0,4.143 3.357,7.5 7.5,7.5 l 72,0 c 4.143,0 7.5,-3.357 7.5,-7.5 0,-4.143 -3.357,-7.5 -7.5,-7.5 z"
           id="path4276" />
      </g>
      <g
         style="fill:#666666"
         id="g4278" />
      <g
         style="fill:#666666"
         id="g4280" />
      <g
         style="fill:#666666"
         id="g4282" />
      <g
         style="fill:#666666"
         id="g4284" />
      <g
         style="fill:#666666"
         id="g4286" />
      <g
         style="fill:#666666"
         id="g4288" />
      <g
         style="fill:#666666"
         id="g4290" />
      <g
         style="fill:#666666"
         id="g4292" />
      <g
         style="fill:#666666"
         id="g4294" />
      <g
         style="fill:#666666"
         id="g4296" />
      <g
         style="fill:#666666"
         id="g4298" />
      <g
         style="fill:#666666"
         id="g4300" />
      <g
         style="fill:#666666"
         id="g4302" />
      <g
         style="fill:#666666"
         id="g4304" />
      <g
         style="fill:#666666"
         id="g4306" />
    </g>
    <path
       inkscape:export-ydpi="80"
       inkscape:export-xdpi="80"
       inkscape:connector-curvature="0"
       id="path4308"
       d="m 282.12544,113.82315 c -1.29337,-0.53178 -2.74148,-1.8892 -4.91937,-4.61125 -2.31267,-2.8906 -3.368,-4.56043 -3.63602,-5.75353 -0.12305,-0.54776 -0.0529,-1.22595 0.17743,-1.71601 0.41218,-0.87689 3.2762,-3.364931 12.32456,-10.706731 1.2602,-1.02254 2.34755,-1.90515 2.41628,-1.96138 0.0992,-0.0811 0.41737,-0.0713 1.54143,0.0477 0.77907,0.0825 1.7424,0.15221 2.14088,0.15496 0.94325,0.007 1.1172,-0.12045 1.24896,-0.91152 0.11353,-0.68157 0.0203,-1.05205 -0.43208,-1.7181 -0.5575,-0.82075 -0.4221,-1.47338 0.48694,-2.34682 0.74161,-0.7126 1.64173,-1.18511 2.25432,-1.18344 0.67411,0.002 1.12513,0.32677 2.73562,1.97082 1.11307,1.13619 1.54737,1.5292 1.62474,1.47018 0.53355,-0.4067 13.62999,-10.996401 13.82631,-11.179851 0.0309,-0.0289 0.13691,-0.72731 0.23568,-1.55218 0.20119,-1.68077 0.31344,-2.02257 0.81176,-2.47137 0.94692,-0.85292 4.91076,-2.79564 8.30643,-4.07113 1.2444,-0.46743 2.16612,-0.69354 2.56627,-0.62955 1.0085,0.16126 2.3551,1.41471 2.70193,2.51502 0.19836,0.6293 0.075,1.48664 -0.33265,2.31118 -0.4017,0.81255 -1.7296,2.81024 -2.97169,4.47052 -2.05542,2.74742 -2.92365,3.70283 -3.71187,4.084401 -0.37382,0.18095 -0.45338,0.18743 -1.69411,0.13789 -0.71605,-0.0286 -1.48938,-0.074 -1.71848,-0.10083 l -0.4166,-0.0488 -2.83291,2.30344 c -8.85429,7.19946 -11.03995,8.98798 -11.03995,9.03392 0,0.028 0.43581,0.66848 0.96846,1.42323 1.86435,2.6418 2.03027,3.41062 0.98596,4.56809 -0.51144,0.56686 -1.4198,1.20712 -1.90552,1.34311 -0.5947,0.1665 -0.91884,0.0599 -1.50001,-0.49311 -0.65057,-0.61913 -0.75018,-0.66641 -1.53025,-0.72657 -0.60325,-0.0465 -0.66649,-0.0358 -0.88216,0.14972 -0.21086,0.18141 -0.25083,0.31104 -0.43329,1.40661 -0.40541,2.434641 -0.61682,3.019421 -1.3457,3.722101 -2.64919,2.55409 -12.21595,9.99111 -14.22937,11.06167 -0.52816,0.2808 -1.15111,0.28341 -1.82193,0.008 z"
       style="fill:#666666" />
    <g
       inkscape:export-ydpi="80"
       inkscape:export-xdpi="80"
       style="fill:#666666"
       transform="matrix(0.15321698,0,0,0.15321698,455.97755,161.10718)"
       id="g4310">
      <g
         style="fill:#666666"
         id="g4312">
        <path
           style="fill:#666666"
           inkscape:connector-curvature="0"
           d="m 289.052,191.691 -36.224,87.974 c -1.228,2.983 -4.017,5.033 -7.23,5.315 L 60.311,301.262 c -4.546,0.399 -7.996,4.266 -7.877,8.826 l 3.768,145.442 c 0.104,3.999 2.941,7.403 6.856,8.228 l 218.13,45.882 c 5.333,1.122 10.753,1.677 16.173,1.665 l 0.004,-43.135 0,-274.834 c -0.002,-12.006 -3.742,-12.746 -8.313,-1.645 z m -25.365,271.232 -81.886,-13.187 0,-42.921 81.886,0 0,56.108 z M 227.882,264.073 9.518,286.138 c -6.671,0.674 -11.532,-6.18 -8.69,-12.252 L 58.973,149.6 c 1.183,-2.529 3.516,-4.331 6.262,-4.835 l 239.934,-44.069 -70.262,158.29 c -1.258,2.833 -3.939,4.775 -7.025,5.087 z m 323.807,37.189 -185.286,-16.281 c -3.214,-0.282 -6.003,-2.332 -7.23,-5.315 l -36.225,-87.974 c -4.571,-11.102 -8.312,-10.362 -8.312,1.644 l 0,274.833 0.004,43.135 c 5.419,0.013 10.84,-0.543 16.174,-1.665 l 218.13,-45.882 c 3.915,-0.824 6.752,-4.229 6.855,-8.228 l 3.768,-145.441 c 0.119,-4.561 -3.333,-8.427 -7.878,-8.826 z m -76.252,77.686 -10.233,0.283 -0.207,64.406 c -0.009,2.837 -2.891,5.55 -6.475,6.065 l -16.771,2.412 c -3.831,0.551 -6.966,-1.412 -6.959,-4.392 l 0.156,-67.651 -11.705,0.324 c -5.691,0.157 -9.292,-4.406 -6.395,-8.183 l 27.837,-36.274 c 2.637,-3.438 9.109,-3.121 11.651,0.501 l 24.435,34.825 c 2.316,3.303 -0.613,7.552 -5.334,7.684 z m 127.044,-92.81 -218.364,-22.065 c -3.086,-0.312 -5.768,-2.254 -7.025,-5.088 l -70.261,-158.29 239.934,44.069 c 2.746,0.504 5.079,2.306 6.263,4.835 l 58.145,124.286 c 2.841,6.073 -2.021,12.927 -8.692,12.253 z"
           id="path4314" />
      </g>
      <g
         style="fill:#666666"
         id="g4316" />
      <g
         style="fill:#666666"
         id="g4318" />
      <g
         style="fill:#666666"
         id="g4320" />
      <g
         style="fill:#666666"
         id="g4322" />
      <g
         style="fill:#666666"
         id="g4324" />
      <g
         style="fill:#666666"
         id="g4326" />
      <g
         style="fill:#666666"
         id="g4328" />
      <g
         style="fill:#666666"
         id="g4330" />
      <g
         style="fill:#666666"
         id="g4332" />
      <g
         style="fill:#666666"
         id="g4334" />
      <g
         style="fill:#666666"
         id="g4336" />
      <g
         style="fill:#666666"
         id="g4338" />
      <g
         style="fill:#666666"
         id="g4340" />
      <g
         style="fill:#666666"
         id="g4342" />
      <g
         style="fill:#666666"
         id="g4344" />
    </g>
    <g
       inkscape:export-ydpi="80"
       inkscape:export-xdpi="80"
       style="fill:#666666"
       transform="matrix(0.13499981,0,0,0.13499981,378.88286,54.273811)"
       id="g4346">
      <g
         style="fill:#666666"
         id="g4348">
        <path
           inkscape:connector-curvature="0"
           style="fill:#666666"
           d="m 495.622,113.089 0,150.03 c 0,0 -32.11,6.326 -38.725,7.158 -6.594,0.83 -27.316,7.521 -42.334,-6.914 -23.16,-22.197 -105.447,-104.03 -105.447,-104.03 0,0 -14.188,-13.922 -36.969,-1.89 -20.912,11.022 -51.911,27.175 -64.859,33.465 -24.477,13.028 -44.764,-7.642 -44.764,-23.387 0,-12.213 7.621,-20.502 18.515,-26.598 29.524,-17.898 91.752,-52.827 117.67,-66.598 15.754,-8.379 27.105,-9.097 48.734,9.124 26.638,22.403 50.344,42.824 50.344,42.824 0,0 7.732,6.453 20.063,3.854 30.28,-6.402 77.772,-17.038 77.772,-17.038 z M 168.098,367.3 c 3.985,-10.238 2.653,-21.689 -4.987,-29.545 -6.865,-7.027 -16.888,-8.879 -26.445,-6.689 2.673,-9.479 1.197,-19.568 -5.705,-26.688 -6.886,-7.009 -16.89,-8.898 -26.446,-6.688 2.653,-9.465 1.181,-19.553 -5.725,-26.652 -10.814,-11.092 -29.519,-10.616 -41.807,1.097 -12.223,11.729 -20.053,32.979 -9.144,45.487 10.891,12.445 23.405,4.873 32.945,2.699 -2.654,9.465 -10.606,18.269 -0.813,30.658 9.784,12.395 23.404,4.875 32.954,2.721 -2.663,9.429 -10.268,19.117 -0.851,30.604 9.502,11.522 25.065,5.383 35.344,2.19 -3.967,10.199 -12.458,21.193 -1.549,33.513 10.892,12.409 36.063,6.668 48.358,-5.063 12.262,-11.729 13.439,-30.318 2.654,-41.445 -7.446,-7.634 -18.546,-9.41 -28.783,-6.199 z m 224.344,-78.054 c -88.88,-88.881 -47.075,-47.058 -94.906,-94.992 0,0 -14.375,-14.311 -33.321,-5.998 -13.3,5.828 -30.423,13.771 -43.307,19.835 -14.158,7.424 -24.347,9.722 -29.131,9.69 -27.37,-0.179 -49.576,-22.178 -49.576,-49.521 0,-17.738 9.417,-33.181 23.462,-41.947 19.75,-13.667 65.21,-37.847 65.21,-37.847 0,0 -13.849,-17.549 -44.187,-17.549 -30.329,0 -93.695,41.512 -93.695,41.512 0,0 -17.976,11.514 -43.601,1.143 L 0,96.373 0,268.05 c 0,0 14.103,4.082 26.775,9.258 2.862,-8.162 7.48,-15.699 13.886,-21.924 21.023,-20.024 55.869,-20.232 74.996,-0.537 5.762,5.987 9.783,13.129 11.835,21.024 7.707,2.379 14.688,6.593 20.298,12.373 5.779,5.947 9.785,13.129 11.854,20.984 7.698,2.381 14.669,6.611 20.298,12.395 6.339,6.537 10.562,14.433 12.534,22.988 8.047,2.344 15.319,6.705 21.176,12.693 11.495,11.807 15.575,27.826 13.103,43.278 0.02,0 0.058,0 0.076,0.035 0.188,0.246 7.122,7.976 11.446,12.336 8.474,8.482 22.311,8.482 30.811,0 8.444,-8.479 8.481,-22.289 0,-30.811 -0.304,-0.303 -30.572,-31.963 -28.136,-34.418 2.418,-2.438 40.981,37.688 41.699,38.422 8.463,8.465 22.291,8.465 30.792,0 8.481,-8.479 8.463,-22.289 0,-30.791 -0.416,-0.396 -2.152,-2.059 -2.796,-2.721 0,0 -38.234,-34.06 -35.324,-36.97 2.946,-2.928 50.438,41.392 50.515,41.392 8.537,7.688 21.687,7.631 29.9,-0.586 7.991,-7.99 8.162,-20.629 1.078,-29.146 -0.15,-0.453 -36.194,-38.121 -33.381,-40.955 2.854,-2.871 38.519,33.853 38.594,33.929 8.444,8.463 22.291,8.463 30.792,0 8.463,-8.464 8.463,-22.291 0,-30.83 -0.115,-0.072 -0.266,-0.148 -0.379,-0.222 z"
           id="path4350" />
      </g>
      <g
         style="fill:#666666"
         id="g4352" />
      <g
         style="fill:#666666"
         id="g4354" />
      <g
         style="fill:#666666"
         id="g4356" />
      <g
         style="fill:#666666"
         id="g4358" />
      <g
         style="fill:#666666"
         id="g4360" />
      <g
         style="fill:#666666"
         id="g4362" />
      <g
         style="fill:#666666"
         id="g4364" />
      <g
         style="fill:#666666"
         id="g4366" />
      <g
         style="fill:#666666"
         id="g4368" />
      <g
         style="fill:#666666"
         id="g4370" />
      <g
         style="fill:#666666"
         id="g4372" />
      <g
         style="fill:#666666"
         id="g4374" />
      <g
         style="fill:#666666"
         id="g4376" />
      <g
         style="fill:#666666"
         id="g4378" />
      <g
         style="fill:#666666"
         id="g4380" />
    </g>
    <g
       inkscape:export-ydpi="80"
       inkscape:export-xdpi="80"
       style="fill:#666666"
       transform="matrix(0.05310568,0,0,0.05310568,403.38416,142.08117)"
       id="g4382">
      <g
         style="fill:#666666"
         id="g4384">
        <path
           style="fill:#666666"
           inkscape:connector-curvature="0"
           d="m 289.052,191.691 -36.224,87.974 c -1.228,2.983 -4.017,5.033 -7.23,5.315 L 60.311,301.262 c -4.546,0.399 -7.996,4.266 -7.877,8.826 l 3.768,145.442 c 0.104,3.999 2.941,7.403 6.856,8.228 l 218.13,45.882 c 5.333,1.122 10.753,1.677 16.173,1.665 l 0.004,-43.135 0,-274.834 c -0.002,-12.006 -3.742,-12.746 -8.313,-1.645 z m -25.365,271.232 -81.886,-13.187 0,-42.921 81.886,0 0,56.108 z M 227.882,264.073 9.518,286.138 c -6.671,0.674 -11.532,-6.18 -8.69,-12.252 L 58.973,149.6 c 1.183,-2.529 3.516,-4.331 6.262,-4.835 l 239.934,-44.069 -70.262,158.29 c -1.258,2.833 -3.939,4.775 -7.025,5.087 z m 323.807,37.189 -185.286,-16.281 c -3.214,-0.282 -6.003,-2.332 -7.23,-5.315 l -36.225,-87.974 c -4.571,-11.102 -8.312,-10.362 -8.312,1.644 l 0,274.833 0.004,43.135 c 5.419,0.013 10.84,-0.543 16.174,-1.665 l 218.13,-45.882 c 3.915,-0.824 6.752,-4.229 6.855,-8.228 l 3.768,-145.441 c 0.119,-4.561 -3.333,-8.427 -7.878,-8.826 z m -76.252,77.686 -10.233,0.283 -0.207,64.406 c -0.009,2.837 -2.891,5.55 -6.475,6.065 l -16.771,2.412 c -3.831,0.551 -6.966,-1.412 -6.959,-4.392 l 0.156,-67.651 -11.705,0.324 c -5.691,0.157 -9.292,-4.406 -6.395,-8.183 l 27.837,-36.274 c 2.637,-3.438 9.109,-3.121 11.651,0.501 l 24.435,34.825 c 2.316,3.303 -0.613,7.552 -5.334,7.684 z m 127.044,-92.81 -218.364,-22.065 c -3.086,-0.312 -5.768,-2.254 -7.025,-5.088 l -70.261,-158.29 239.934,44.069 c 2.746,0.504 5.079,2.306 6.263,4.835 l 58.145,124.286 c 2.841,6.073 -2.021,12.927 -8.692,12.253 z"
           id="path4386" />
      </g>
      <g
         style="fill:#666666"
         id="g4388" />
      <g
         style="fill:#666666"
         id="g4390" />
      <g
         style="fill:#666666"
         id="g4392" />
      <g
         style="fill:#666666"
         id="g4394" />
      <g
         style="fill:#666666"
         id="g4396" />
      <g
         style="fill:#666666"
         id="g4398" />
      <g
         style="fill:#666666"
         id="g4400" />
      <g
         style="fill:#666666"
         id="g4402" />
      <g
         style="fill:#666666"
         id="g4404" />
      <g
         style="fill:#666666"
         id="g4406" />
      <g
         style="fill:#666666"
         id="g4408" />
      <g
         style="fill:#666666"
         id="g4410" />
      <g
         style="fill:#666666"
         id="g4412" />
      <g
         style="fill:#666666"
         id="g4414" />
      <g
         style="fill:#666666"
         id="g4416" />
    </g>
    <path
       style="fill:#666666"
       d="m 418.90035,251.54717 c -0.69053,-0.28392 -1.46367,-1.00864 -2.62644,-2.46194 -1.23472,-1.54328 -1.79816,-2.4348 -1.94126,-3.07179 -0.0657,-0.29245 -0.0282,-0.65453 0.0947,-0.91617 0.22007,-0.46817 1.74916,-1.79653 6.58005,-5.71629 0.67281,-0.54593 1.25335,-1.01715 1.29004,-1.04717 0.053,-0.0433 0.22283,-0.0381 0.82297,0.0255 0.41594,0.044 0.93026,0.0813 1.14301,0.0827 0.50359,0.004 0.59647,-0.0643 0.66681,-0.48666 0.0606,-0.36389 0.0108,-0.56169 -0.23068,-0.91729 -0.29765,-0.4382 -0.22536,-0.78663 0.25997,-1.25296 0.39594,-0.38046 0.87652,-0.63273 1.20358,-0.63184 0.3599,0.001 0.6007,0.17447 1.46053,1.05222 0.59427,0.60661 0.82614,0.81643 0.86745,0.78492 0.28486,-0.21713 7.27701,-5.87094 7.38182,-5.96888 0.0165,-0.0154 0.0731,-0.38831 0.12583,-0.82871 0.10741,-0.89735 0.16734,-1.07984 0.4334,-1.31945 0.50555,-0.45537 2.62184,-1.49259 4.43477,-2.17357 0.66438,-0.24956 1.15649,-0.37028 1.37013,-0.33611 0.53843,0.0861 1.25738,0.75531 1.44255,1.34276 0.1059,0.33598 0.04,0.79371 -0.1776,1.23393 -0.21447,0.43382 -0.92343,1.50038 -1.58658,2.3868 -1.09738,1.46684 -1.56093,1.97693 -1.98175,2.18065 -0.19959,0.0966 -0.24206,0.10006 -0.90448,0.0736 -0.3823,-0.0153 -0.79518,-0.0395 -0.9175,-0.0538 l -0.22242,-0.0261 -1.51248,1.2298 c -4.72728,3.84377 -5.89419,4.79865 -5.89419,4.82318 0,0.0149 0.23267,0.3569 0.51705,0.75986 0.99538,1.41045 1.08396,1.82092 0.52641,2.43889 -0.27306,0.30264 -0.75803,0.64447 -1.01736,0.71708 -0.3175,0.0889 -0.49056,0.032 -0.80085,-0.26327 -0.34733,-0.33055 -0.40051,-0.3558 -0.81699,-0.38792 -0.32207,-0.0248 -0.35584,-0.0191 -0.47098,0.0799 -0.11258,0.0969 -0.13392,0.16606 -0.23134,0.75098 -0.21644,1.29985 -0.32931,1.61206 -0.71846,1.98722 -1.4144,1.36362 -6.52206,5.33422 -7.59702,5.90579 -0.28198,0.14992 -0.61457,0.15131 -0.97272,0.004 z"
       id="path4418"
       inkscape:connector-curvature="0"
       inkscape:export-xdpi="80"
       inkscape:export-ydpi="80" />
    <g
       inkscape:export-ydpi="80"
       inkscape:export-xdpi="80"
       style="fill:#666666"
       transform="matrix(0.04966766,0,0,0.04966766,320.78009,115.60856)"
       id="g4420">
      <g
         style="fill:#666666"
         id="g4422">
        <path
           inkscape:connector-curvature="0"
           style="fill:#666666"
           d="m 495.622,113.089 0,150.03 c 0,0 -32.11,6.326 -38.725,7.158 -6.594,0.83 -27.316,7.521 -42.334,-6.914 -23.16,-22.197 -105.447,-104.03 -105.447,-104.03 0,0 -14.188,-13.922 -36.969,-1.89 -20.912,11.022 -51.911,27.175 -64.859,33.465 -24.477,13.028 -44.764,-7.642 -44.764,-23.387 0,-12.213 7.621,-20.502 18.515,-26.598 29.524,-17.898 91.752,-52.827 117.67,-66.598 15.754,-8.379 27.105,-9.097 48.734,9.124 26.638,22.403 50.344,42.824 50.344,42.824 0,0 7.732,6.453 20.063,3.854 30.28,-6.402 77.772,-17.038 77.772,-17.038 z M 168.098,367.3 c 3.985,-10.238 2.653,-21.689 -4.987,-29.545 -6.865,-7.027 -16.888,-8.879 -26.445,-6.689 2.673,-9.479 1.197,-19.568 -5.705,-26.688 -6.886,-7.009 -16.89,-8.898 -26.446,-6.688 2.653,-9.465 1.181,-19.553 -5.725,-26.652 -10.814,-11.092 -29.519,-10.616 -41.807,1.097 -12.223,11.729 -20.053,32.979 -9.144,45.487 10.891,12.445 23.405,4.873 32.945,2.699 -2.654,9.465 -10.606,18.269 -0.813,30.658 9.784,12.395 23.404,4.875 32.954,2.721 -2.663,9.429 -10.268,19.117 -0.851,30.604 9.502,11.522 25.065,5.383 35.344,2.19 -3.967,10.199 -12.458,21.193 -1.549,33.513 10.892,12.409 36.063,6.668 48.358,-5.063 12.262,-11.729 13.439,-30.318 2.654,-41.445 -7.446,-7.634 -18.546,-9.41 -28.783,-6.199 z m 224.344,-78.054 c -88.88,-88.881 -47.075,-47.058 -94.906,-94.992 0,0 -14.375,-14.311 -33.321,-5.998 -13.3,5.828 -30.423,13.771 -43.307,19.835 -14.158,7.424 -24.347,9.722 -29.131,9.69 -27.37,-0.179 -49.576,-22.178 -49.576,-49.521 0,-17.738 9.417,-33.181 23.462,-41.947 19.75,-13.667 65.21,-37.847 65.21,-37.847 0,0 -13.849,-17.549 -44.187,-17.549 -30.329,0 -93.695,41.512 -93.695,41.512 0,0 -17.976,11.514 -43.601,1.143 L 0,96.373 0,268.05 c 0,0 14.103,4.082 26.775,9.258 2.862,-8.162 7.48,-15.699 13.886,-21.924 21.023,-20.024 55.869,-20.232 74.996,-0.537 5.762,5.987 9.783,13.129 11.835,21.024 7.707,2.379 14.688,6.593 20.298,12.373 5.779,5.947 9.785,13.129 11.854,20.984 7.698,2.381 14.669,6.611 20.298,12.395 6.339,6.537 10.562,14.433 12.534,22.988 8.047,2.344 15.319,6.705 21.176,12.693 11.495,11.807 15.575,27.826 13.103,43.278 0.02,0 0.058,0 0.076,0.035 0.188,0.246 7.122,7.976 11.446,12.336 8.474,8.482 22.311,8.482 30.811,0 8.444,-8.479 8.481,-22.289 0,-30.811 -0.304,-0.303 -30.572,-31.963 -28.136,-34.418 2.418,-2.438 40.981,37.688 41.699,38.422 8.463,8.465 22.291,8.465 30.792,0 8.481,-8.479 8.463,-22.289 0,-30.791 -0.416,-0.396 -2.152,-2.059 -2.796,-2.721 0,0 -38.234,-34.06 -35.324,-36.97 2.946,-2.928 50.438,41.392 50.515,41.392 8.537,7.688 21.687,7.631 29.9,-0.586 7.991,-7.99 8.162,-20.629 1.078,-29.146 -0.15,-0.453 -36.194,-38.121 -33.381,-40.955 2.854,-2.871 38.519,33.853 38.594,33.929 8.444,8.463 22.291,8.463 30.792,0 8.463,-8.464 8.463,-22.291 0,-30.83 -0.115,-0.072 -0.266,-0.148 -0.379,-0.222 z"
           id="path4424" />
      </g>
      <g
         style="fill:#666666"
         id="g4426" />
      <g
         style="fill:#666666"
         id="g4428" />
      <g
         style="fill:#666666"
         id="g4430" />
      <g
         style="fill:#666666"
         id="g4432" />
      <g
         style="fill:#666666"
         id="g4434" />
      <g
         style="fill:#666666"
         id="g4436" />
      <g
         style="fill:#666666"
         id="g4438" />
      <g
         style="fill:#666666"
         id="g4440" />
      <g
         style="fill:#666666"
         id="g4442" />
      <g
         style="fill:#666666"
         id="g4444" />
      <g
         style="fill:#666666"
         id="g4446" />
      <g
         style="fill:#666666"
         id="g4448" />
      <g
         style="fill:#666666"
         id="g4450" />
      <g
         style="fill:#666666"
         id="g4452" />
      <g
         style="fill:#666666"
         id="g4454" />
    </g>
    <g
       inkscape:export-ydpi="80"
       inkscape:export-xdpi="80"
       style="fill:#666666"
       transform="matrix(0.08101289,0,0,0.08101289,355.14742,159.30271)"
       id="g4456">
      <g
         style="fill:#666666"
         id="g4458">
        <path
           inkscape:connector-curvature="0"
           style="fill:#666666"
           d="m 235.143,17.081 -217.643,0 C 7.851,17.081 0,24.932 0,34.581 l 0,147.658 c 0,9.649 7.851,17.5 17.5,17.5 l 126.911,0 -3.832,23.37 c -0.721,4.399 0.734,8.384 3.893,10.658 3.158,2.274 7.396,2.396 11.341,0.317 l 27.381,-14.412 c 0.764,-0.392 2.869,-0.392 3.633,0 l 27.381,14.412 c 1.873,0.986 3.813,1.477 5.672,1.477 2.056,0 4.012,-0.601 5.67,-1.795 3.158,-2.274 4.613,-6.26 3.893,-10.659 l -3.831,-23.369 9.532,0 c 9.649,0 17.5,-7.851 17.5,-17.5 l 0,-147.657 c -0.001,-9.65 -7.852,-17.5 -17.501,-17.5 z m -50.132,152.662 c -16.817,0 -30.5,-13.683 -30.5,-30.5 0,-16.817 13.683,-30.5 30.5,-30.5 16.817,0 30.5,13.683 30.5,30.5 0,16.817 -13.683,30.5 -30.5,30.5 z m 8.803,36.656 c -5.101,-2.686 -12.506,-2.686 -17.606,0 l -19.358,10.189 6.154,-37.539 c 6.527,3.623 14.029,5.693 22.008,5.693 7.979,0 15.48,-2.071 22.008,-5.693 l 2.398,14.635 c 0.006,0.024 0.008,0.05 0.013,0.074 l 3.743,22.831 -19.36,-10.19 z m 43.829,-24.16 c 0,1.355 -1.145,2.5 -2.5,2.5 l -11.991,0 -2.739,-16.709 c -0.011,-0.066 -0.029,-0.129 -0.042,-0.195 6.335,-7.818 10.141,-17.768 10.141,-28.592 0,-25.089 -20.411,-45.5 -45.5,-45.5 -25.089,0 -45.5,20.411 -45.5,45.5 0,10.824 3.806,20.772 10.141,28.592 -0.013,0.065 -0.031,0.129 -0.042,0.194 l -2.741,16.723 c -0.084,-0.003 -0.165,-0.013 -0.249,-0.013 l -129.121,0 c -1.355,0 -2.5,-1.145 -2.5,-2.5 L 15,34.581 c 0,-1.355 1.145,-2.5 2.5,-2.5 l 217.643,0 c 1.355,0 2.5,1.145 2.5,2.5 l 0,147.658 z"
           id="path4460" />
        <path
           inkscape:connector-curvature="0"
           style="fill:#666666"
           d="m 208.619,60.243 -170,0 c -4.143,0 -7.5,3.357 -7.5,7.5 0,4.143 3.357,7.5 7.5,7.5 l 170,0 c 4.143,0 7.5,-3.357 7.5,-7.5 0,-4.143 -3.357,-7.5 -7.5,-7.5 z"
           id="path4462" />
        <path
           inkscape:connector-curvature="0"
           style="fill:#666666"
           d="m 110.619,100.911 -72,0 c -4.143,0 -7.5,3.357 -7.5,7.5 0,4.143 3.357,7.5 7.5,7.5 l 72,0 c 4.143,0 7.5,-3.357 7.5,-7.5 0,-4.143 -3.357,-7.5 -7.5,-7.5 z"
           id="path4464" />
      </g>
      <g
         style="fill:#666666"
         id="g4466" />
      <g
         style="fill:#666666"
         id="g4468" />
      <g
         style="fill:#666666"
         id="g4470" />
      <g
         style="fill:#666666"
         id="g4472" />
      <g
         style="fill:#666666"
         id="g4474" />
      <g
         style="fill:#666666"
         id="g4476" />
      <g
         style="fill:#666666"
         id="g4478" />
      <g
         style="fill:#666666"
         id="g4480" />
      <g
         style="fill:#666666"
         id="g4482" />
      <g
         style="fill:#666666"
         id="g4484" />
      <g
         style="fill:#666666"
         id="g4486" />
      <g
         style="fill:#666666"
         id="g4488" />
      <g
         style="fill:#666666"
         id="g4490" />
      <g
         style="fill:#666666"
         id="g4492" />
      <g
         style="fill:#666666"
         id="g4494" />
    </g>
    <g
       id="g4496"
       transform="matrix(0.08101289,0,0,0.08101289,338.54663,268.70983)"
       style="fill:#666666"
       inkscape:export-xdpi="80"
       inkscape:export-ydpi="80">
      <g
         id="g4498"
         style="fill:#666666">
        <path
           id="path4500"
           d="m 235.143,17.081 -217.643,0 C 7.851,17.081 0,24.932 0,34.581 l 0,147.658 c 0,9.649 7.851,17.5 17.5,17.5 l 126.911,0 -3.832,23.37 c -0.721,4.399 0.734,8.384 3.893,10.658 3.158,2.274 7.396,2.396 11.341,0.317 l 27.381,-14.412 c 0.764,-0.392 2.869,-0.392 3.633,0 l 27.381,14.412 c 1.873,0.986 3.813,1.477 5.672,1.477 2.056,0 4.012,-0.601 5.67,-1.795 3.158,-2.274 4.613,-6.26 3.893,-10.659 l -3.831,-23.369 9.532,0 c 9.649,0 17.5,-7.851 17.5,-17.5 l 0,-147.657 c -0.001,-9.65 -7.852,-17.5 -17.501,-17.5 z m -50.132,152.662 c -16.817,0 -30.5,-13.683 -30.5,-30.5 0,-16.817 13.683,-30.5 30.5,-30.5 16.817,0 30.5,13.683 30.5,30.5 0,16.817 -13.683,30.5 -30.5,30.5 z m 8.803,36.656 c -5.101,-2.686 -12.506,-2.686 -17.606,0 l -19.358,10.189 6.154,-37.539 c 6.527,3.623 14.029,5.693 22.008,5.693 7.979,0 15.48,-2.071 22.008,-5.693 l 2.398,14.635 c 0.006,0.024 0.008,0.05 0.013,0.074 l 3.743,22.831 -19.36,-10.19 z m 43.829,-24.16 c 0,1.355 -1.145,2.5 -2.5,2.5 l -11.991,0 -2.739,-16.709 c -0.011,-0.066 -0.029,-0.129 -0.042,-0.195 6.335,-7.818 10.141,-17.768 10.141,-28.592 0,-25.089 -20.411,-45.5 -45.5,-45.5 -25.089,0 -45.5,20.411 -45.5,45.5 0,10.824 3.806,20.772 10.141,28.592 -0.013,0.065 -0.031,0.129 -0.042,0.194 l -2.741,16.723 c -0.084,-0.003 -0.165,-0.013 -0.249,-0.013 l -129.121,0 c -1.355,0 -2.5,-1.145 -2.5,-2.5 L 15,34.581 c 0,-1.355 1.145,-2.5 2.5,-2.5 l 217.643,0 c 1.355,0 2.5,1.145 2.5,2.5 l 0,147.658 z"
           style="fill:#666666"
           inkscape:connector-curvature="0" />
        <path
           id="path4502"
           d="m 208.619,60.243 -170,0 c -4.143,0 -7.5,3.357 -7.5,7.5 0,4.143 3.357,7.5 7.5,7.5 l 170,0 c 4.143,0 7.5,-3.357 7.5,-7.5 0,-4.143 -3.357,-7.5 -7.5,-7.5 z"
           style="fill:#666666"
           inkscape:connector-curvature="0" />
        <path
           id="path4504"
           d="m 110.619,100.911 -72,0 c -4.143,0 -7.5,3.357 -7.5,7.5 0,4.143 3.357,7.5 7.5,7.5 l 72,0 c 4.143,0 7.5,-3.357 7.5,-7.5 0,-4.143 -3.357,-7.5 -7.5,-7.5 z"
           style="fill:#666666"
           inkscape:connector-curvature="0" />
      </g>
      <g
         id="g4506"
         style="fill:#666666" />
      <g
         id="g4508"
         style="fill:#666666" />
      <g
         id="g4510"
         style="fill:#666666" />
      <g
         id="g4512"
         style="fill:#666666" />
      <g
         id="g4514"
         style="fill:#666666" />
      <g
         id="g4516"
         style="fill:#666666" />
      <g
         id="g4518"
         style="fill:#666666" />
      <g
         id="g4520"
         style="fill:#666666" />
      <g
         id="g4522"
         style="fill:#666666" />
      <g
         id="g4524"
         style="fill:#666666" />
      <g
         id="g4526"
         style="fill:#666666" />
      <g
         id="g4528"
         style="fill:#666666" />
      <g
         id="g4530"
         style="fill:#666666" />
      <g
         id="g4532"
         style="fill:#666666" />
      <g
         id="g4534"
         style="fill:#666666" />
    </g>
    <path
       inkscape:export-ydpi="80"
       inkscape:export-xdpi="80"
       inkscape:connector-curvature="0"
       id="path4536"
       d="m 437.55648,131.78432 c -0.69053,-0.28392 -1.46367,-1.00864 -2.62644,-2.46194 -1.23472,-1.54328 -1.79816,-2.4348 -1.94126,-3.07179 -0.0657,-0.29245 -0.0282,-0.65453 0.0947,-0.91617 0.22007,-0.46817 1.74916,-1.79653 6.58005,-5.71629 0.67281,-0.54593 1.25335,-1.01715 1.29004,-1.04717 0.053,-0.0433 0.22283,-0.0381 0.82297,0.0255 0.41594,0.044 0.93026,0.0813 1.14301,0.0827 0.50359,0.004 0.59647,-0.0643 0.66681,-0.48666 0.0606,-0.36389 0.0108,-0.56169 -0.23068,-0.91729 -0.29765,-0.4382 -0.22536,-0.78663 0.25997,-1.25296 0.39594,-0.38046 0.87652,-0.63273 1.20358,-0.63184 0.3599,10e-4 0.6007,0.17447 1.46053,1.05222 0.59427,0.60661 0.82614,0.81643 0.86745,0.78492 0.28486,-0.21713 7.27701,-5.87094 7.38182,-5.96888 0.0165,-0.0154 0.0731,-0.38831 0.12583,-0.82871 0.10741,-0.89735 0.16734,-1.07984 0.4334,-1.31945 0.50555,-0.45537 2.62184,-1.49259 4.43477,-2.17357 0.66438,-0.24956 1.15649,-0.37028 1.37013,-0.33611 0.53843,0.0861 1.25738,0.75531 1.44255,1.34276 0.1059,0.33598 0.04,0.79371 -0.1776,1.23393 -0.21447,0.43382 -0.92343,1.50038 -1.58658,2.3868 -1.09738,1.46684 -1.56093,1.97693 -1.98175,2.18065 -0.19959,0.0966 -0.24206,0.10006 -0.90448,0.0736 -0.3823,-0.0153 -0.79518,-0.0395 -0.9175,-0.0538 l -0.22242,-0.0261 -1.51248,1.2298 c -4.72728,3.84377 -5.89419,4.79865 -5.89419,4.82318 0,0.0149 0.23267,0.3569 0.51705,0.75986 0.99538,1.41045 1.08396,1.82092 0.52641,2.43889 -0.27306,0.30264 -0.75803,0.64447 -1.01736,0.71708 -0.3175,0.0889 -0.49056,0.032 -0.80085,-0.26327 -0.34733,-0.33055 -0.40051,-0.3558 -0.81699,-0.38792 -0.32207,-0.0248 -0.35584,-0.0191 -0.47098,0.0799 -0.11258,0.0969 -0.13392,0.16606 -0.23134,0.75098 -0.21644,1.29985 -0.32931,1.61206 -0.71846,1.98722 -1.4144,1.36362 -6.52206,5.33422 -7.59702,5.90579 -0.28198,0.14992 -0.61457,0.15131 -0.97272,0.004 z"
       style="fill:#666666" />
    <g
       id="g4538"
       transform="matrix(0.05310568,0,0,0.05310568,375.66084,199.56734)"
       style="fill:#666666"
       inkscape:export-xdpi="80"
       inkscape:export-ydpi="80">
      <g
         id="g4540"
         style="fill:#666666">
        <path
           id="path4542"
           d="m 289.052,191.691 -36.224,87.974 c -1.228,2.983 -4.017,5.033 -7.23,5.315 L 60.311,301.262 c -4.546,0.399 -7.996,4.266 -7.877,8.826 l 3.768,145.442 c 0.104,3.999 2.941,7.403 6.856,8.228 l 218.13,45.882 c 5.333,1.122 10.753,1.677 16.173,1.665 l 0.004,-43.135 0,-274.834 c -0.002,-12.006 -3.742,-12.746 -8.313,-1.645 z m -25.365,271.232 -81.886,-13.187 0,-42.921 81.886,0 0,56.108 z M 227.882,264.073 9.518,286.138 c -6.671,0.674 -11.532,-6.18 -8.69,-12.252 L 58.973,149.6 c 1.183,-2.529 3.516,-4.331 6.262,-4.835 l 239.934,-44.069 -70.262,158.29 c -1.258,2.833 -3.939,4.775 -7.025,5.087 z m 323.807,37.189 -185.286,-16.281 c -3.214,-0.282 -6.003,-2.332 -7.23,-5.315 l -36.225,-87.974 c -4.571,-11.102 -8.312,-10.362 -8.312,1.644 l 0,274.833 0.004,43.135 c 5.419,0.013 10.84,-0.543 16.174,-1.665 l 218.13,-45.882 c 3.915,-0.824 6.752,-4.229 6.855,-8.228 l 3.768,-145.441 c 0.119,-4.561 -3.333,-8.427 -7.878,-8.826 z m -76.252,77.686 -10.233,0.283 -0.207,64.406 c -0.009,2.837 -2.891,5.55 -6.475,6.065 l -16.771,2.412 c -3.831,0.551 -6.966,-1.412 -6.959,-4.392 l 0.156,-67.651 -11.705,0.324 c -5.691,0.157 -9.292,-4.406 -6.395,-8.183 l 27.837,-36.274 c 2.637,-3.438 9.109,-3.121 11.651,0.501 l 24.435,34.825 c 2.316,3.303 -0.613,7.552 -5.334,7.684 z m 127.044,-92.81 -218.364,-22.065 c -3.086,-0.312 -5.768,-2.254 -7.025,-5.088 l -70.261,-158.29 239.934,44.069 c 2.746,0.504 5.079,2.306 6.263,4.835 l 58.145,124.286 c 2.841,6.073 -2.021,12.927 -8.692,12.253 z"
           inkscape:connector-curvature="0"
           style="fill:#666666" />
      </g>
      <g
         id="g4544"
         style="fill:#666666" />
      <g
         id="g4546"
         style="fill:#666666" />
      <g
         id="g4548"
         style="fill:#666666" />
      <g
         id="g4550"
         style="fill:#666666" />
      <g
         id="g4552"
         style="fill:#666666" />
      <g
         id="g4554"
         style="fill:#666666" />
      <g
         id="g4556"
         style="fill:#666666" />
      <g
         id="g4558"
         style="fill:#666666" />
      <g
         id="g4560"
         style="fill:#666666" />
      <g
         id="g4562"
         style="fill:#666666" />
      <g
         id="g4564"
         style="fill:#666666" />
      <g
         id="g4566"
         style="fill:#666666" />
      <g
         id="g4568"
         style="fill:#666666" />
      <g
         id="g4570"
         style="fill:#666666" />
      <g
         id="g4572"
         style="fill:#666666" />
    </g>
    <g
       id="g4574"
       transform="matrix(0.04966766,0,0,0.04966766,278.25044,250.70738)"
       style="fill:#666666"
       inkscape:export-xdpi="80"
       inkscape:export-ydpi="80">
      <g
         id="g4576"
         style="fill:#666666">
        <path
           id="path4578"
           d="m 495.622,113.089 0,150.03 c 0,0 -32.11,6.326 -38.725,7.158 -6.594,0.83 -27.316,7.521 -42.334,-6.914 -23.16,-22.197 -105.447,-104.03 -105.447,-104.03 0,0 -14.188,-13.922 -36.969,-1.89 -20.912,11.022 -51.911,27.175 -64.859,33.465 -24.477,13.028 -44.764,-7.642 -44.764,-23.387 0,-12.213 7.621,-20.502 18.515,-26.598 29.524,-17.898 91.752,-52.827 117.67,-66.598 15.754,-8.379 27.105,-9.097 48.734,9.124 26.638,22.403 50.344,42.824 50.344,42.824 0,0 7.732,6.453 20.063,3.854 30.28,-6.402 77.772,-17.038 77.772,-17.038 z M 168.098,367.3 c 3.985,-10.238 2.653,-21.689 -4.987,-29.545 -6.865,-7.027 -16.888,-8.879 -26.445,-6.689 2.673,-9.479 1.197,-19.568 -5.705,-26.688 -6.886,-7.009 -16.89,-8.898 -26.446,-6.688 2.653,-9.465 1.181,-19.553 -5.725,-26.652 -10.814,-11.092 -29.519,-10.616 -41.807,1.097 -12.223,11.729 -20.053,32.979 -9.144,45.487 10.891,12.445 23.405,4.873 32.945,2.699 -2.654,9.465 -10.606,18.269 -0.813,30.658 9.784,12.395 23.404,4.875 32.954,2.721 -2.663,9.429 -10.268,19.117 -0.851,30.604 9.502,11.522 25.065,5.383 35.344,2.19 -3.967,10.199 -12.458,21.193 -1.549,33.513 10.892,12.409 36.063,6.668 48.358,-5.063 12.262,-11.729 13.439,-30.318 2.654,-41.445 -7.446,-7.634 -18.546,-9.41 -28.783,-6.199 z m 224.344,-78.054 c -88.88,-88.881 -47.075,-47.058 -94.906,-94.992 0,0 -14.375,-14.311 -33.321,-5.998 -13.3,5.828 -30.423,13.771 -43.307,19.835 -14.158,7.424 -24.347,9.722 -29.131,9.69 -27.37,-0.179 -49.576,-22.178 -49.576,-49.521 0,-17.738 9.417,-33.181 23.462,-41.947 19.75,-13.667 65.21,-37.847 65.21,-37.847 0,0 -13.849,-17.549 -44.187,-17.549 -30.329,0 -93.695,41.512 -93.695,41.512 0,0 -17.976,11.514 -43.601,1.143 L 0,96.373 0,268.05 c 0,0 14.103,4.082 26.775,9.258 2.862,-8.162 7.48,-15.699 13.886,-21.924 21.023,-20.024 55.869,-20.232 74.996,-0.537 5.762,5.987 9.783,13.129 11.835,21.024 7.707,2.379 14.688,6.593 20.298,12.373 5.779,5.947 9.785,13.129 11.854,20.984 7.698,2.381 14.669,6.611 20.298,12.395 6.339,6.537 10.562,14.433 12.534,22.988 8.047,2.344 15.319,6.705 21.176,12.693 11.495,11.807 15.575,27.826 13.103,43.278 0.02,0 0.058,0 0.076,0.035 0.188,0.246 7.122,7.976 11.446,12.336 8.474,8.482 22.311,8.482 30.811,0 8.444,-8.479 8.481,-22.289 0,-30.811 -0.304,-0.303 -30.572,-31.963 -28.136,-34.418 2.418,-2.438 40.981,37.688 41.699,38.422 8.463,8.465 22.291,8.465 30.792,0 8.481,-8.479 8.463,-22.289 0,-30.791 -0.416,-0.396 -2.152,-2.059 -2.796,-2.721 0,0 -38.234,-34.06 -35.324,-36.97 2.946,-2.928 50.438,41.392 50.515,41.392 8.537,7.688 21.687,7.631 29.9,-0.586 7.991,-7.99 8.162,-20.629 1.078,-29.146 -0.15,-0.453 -36.194,-38.121 -33.381,-40.955 2.854,-2.871 38.519,33.853 38.594,33.929 8.444,8.463 22.291,8.463 30.792,0 8.463,-8.464 8.463,-22.291 0,-30.83 -0.115,-0.072 -0.266,-0.148 -0.379,-0.222 z"
           style="fill:#666666"
           inkscape:connector-curvature="0" />
      </g>
      <g
         id="g4580"
         style="fill:#666666" />
      <g
         id="g4582"
         style="fill:#666666" />
      <g
         id="g4584"
         style="fill:#666666" />
      <g
         id="g4586"
         style="fill:#666666" />
      <g
         id="g4588"
         style="fill:#666666" />
      <g
         id="g4590"
         style="fill:#666666" />
      <g
         id="g4592"
         style="fill:#666666" />
      <g
         id="g4594"
         style="fill:#666666" />
      <g
         id="g4596"
         style="fill:#666666" />
      <g
         id="g4598"
         style="fill:#666666" />
      <g
         id="g4600"
         style="fill:#666666" />
      <g
         id="g4602"
         style="fill:#666666" />
      <g
         id="g4604"
         style="fill:#666666" />
      <g
         id="g4606"
         style="fill:#666666" />
      <g
         id="g4608"
         style="fill:#666666" />
    </g>
  </g>
</svg>
