<?xml version="1.0" encoding="UTF-8" standalone="no"?>
<!-- Created with Inkscape (http://www.inkscape.org/) -->

<svg
   xmlns:dc="http://purl.org/dc/elements/1.1/"
   xmlns:cc="http://creativecommons.org/ns#"
   xmlns:rdf="http://www.w3.org/1999/02/22-rdf-syntax-ns#"
   xmlns:svg="http://www.w3.org/2000/svg"
   xmlns="http://www.w3.org/2000/svg"
   xmlns:sodipodi="http://sodipodi.sourceforge.net/DTD/sodipodi-0.dtd"
   xmlns:inkscape="http://www.inkscape.org/namespaces/inkscape"
   width="1411.5916mm"
   height="311.18686mm"
   viewBox="0 0 5001.7024 1102.6306"
   id="svg4704"
   version="1.1"
   inkscape:version="0.91 r13725"
   sodipodi:docname="fond.svg">
  <defs
     id="defs4706">
    <inkscape:path-effect
       effect="spiro"
       id="path-effect5418"
       is_visible="true" />
    <inkscape:path-effect
       effect="spiro"
       id="path-effect5408"
       is_visible="true" />
    <inkscape:path-effect
       effect="spiro"
       id="path-effect5404"
       is_visible="true" />
    <inkscape:path-effect
       effect="spiro"
       id="path-effect5400"
       is_visible="true" />
    <inkscape:path-effect
       effect="spiro"
       id="path-effect5396"
       is_visible="true" />
    <inkscape:perspective
       sodipodi:type="inkscape:persp3d"
       inkscape:vp_x="-574.97746 : -67.745018 : 0"
       inkscape:vp_y="29.440497 : 854.46019 : 1"
       inkscape:vp_z="-478.48004 : 70.731638 : 0"
       inkscape:persp3d-origin="820.81334 : 821.57431 : 1"
       id="perspective5342" />
    <inkscape:perspective
       sodipodi:type="inkscape:persp3d"
       inkscape:vp_x="-640.29548 : 515.81258 : 1"
       inkscape:vp_y="0 : 797.12603 : 0"
       inkscape:vp_z="-373.05733 : 725.06595 : 1"
       inkscape:persp3d-origin="408.61177 : 376.00168 : 1"
       id="perspective4784" />
    <inkscape:perspective
       sodipodi:type="inkscape:persp3d"
       inkscape:vp_x="265.99443 : 919.94574 : 1"
       inkscape:vp_y="0 : 999.99997 : 0"
       inkscape:vp_z="460.67687 : 850.25288 : 1"
       inkscape:persp3d-origin="372.04726 : 350.78738 : 1"
       id="perspective4712" />
  </defs>
  <sodipodi:namedview
     id="base"
     pagecolor="#ffffff"
     bordercolor="#666666"
     borderopacity="1.0"
     inkscape:pageopacity="0.0"
     inkscape:pageshadow="2"
     inkscape:zoom="0.15219065"
     inkscape:cx="4078.254"
     inkscape:cy="623.02757"
     inkscape:document-units="px"
     inkscape:current-layer="layer1"
     showgrid="false"
     inkscape:window-width="1122"
     inkscape:window-height="945"
     inkscape:window-x="341"
     inkscape:window-y="101"
     inkscape:window-maximized="0"
     fit-margin-top="0"
     fit-margin-left="0"
     fit-margin-right="0"
     fit-margin-bottom="0" />
  <metadata
     id="metadata4709">
    <rdf:RDF>
      <cc:Work
         rdf:about="">
        <dc:format>image/svg+xml</dc:format>
        <dc:type
           rdf:resource="http://purl.org/dc/dcmitype/StillImage" />
        <dc:title />
      </cc:Work>
    </rdf:RDF>
  </metadata>
  <g
     inkscape:label="Calque 1"
     inkscape:groupmode="layer"
     id="layer1"
     transform="translate(-269.76154,800.64264)">
    <rect
       style="opacity:1;fill:#808000;fill-opacity:1;stroke:#000000;stroke-width:2;stroke-linecap:square;stroke-linejoin:round;stroke-miterlimit:4;stroke-dasharray:none;stroke-opacity:1"
       id="rect5372"
       width="0"
       height="0"
       x="404.2186"
       y="84.792984" />
    <g
       id="g4352"
       inkscape:export-xdpi="80"
       inkscape:export-ydpi="80">
      <circle
         inkscape:export-ydpi="80"
         inkscape:export-xdpi="80"
         r="540.85126"
         cy="-238.86334"
         cx="2117.2793"
         id="path5387"
         style="opacity:1;fill:#5f4722;fill-opacity:1;stroke:none;stroke-width:10;stroke-linecap:square;stroke-linejoin:round;stroke-miterlimit:4;stroke-dasharray:none;stroke-opacity:1" />
      <path
         inkscape:export-ydpi="80"
         inkscape:export-xdpi="80"
         inkscape:connector-curvature="0"
         id="path5537"
         d="m 1886.8775,46.785567 c -15.73,-6.467391 -33.3416,-22.97591 -59.8283,-56.0809309 -28.1264,-35.1547831 -40.9609,-55.4628911 -44.2206,-69.9731041 -1.4965,-6.661655 -0.6434,-14.9097 2.1579,-20.869662 5.0129,-10.66451 39.8443,-40.92349 149.8884,-130.21277 15.3264,-12.43583 28.5504,-23.17002 29.386,-23.85388 1.2065,-0.98665 5.0761,-0.86683 18.7469,0.58046 9.4747,1.00304 21.1907,1.85108 26.0366,1.88454 11.4718,0.0792 13.5872,-1.46491 15.1897,-11.08573 1.3809,-8.28906 0.2487,-12.79477 -5.2547,-20.89511 -6.7803,-9.98179 -5.1336,-17.91885 5.9218,-28.54148 9.0195,-8.66641 19.9663,-14.41301 27.4167,-14.39278 8.1982,0.0215 13.6836,3.97415 33.27,23.96869 13.5366,13.81815 18.8184,18.59779 19.7596,17.88007 6.4889,-4.94624 165.7646,-133.73567 168.1524,-135.96681 0.3751,-0.35075 1.6648,-8.84536 2.8661,-18.87722 2.447,-20.44106 3.8122,-24.59799 9.8726,-30.05618 11.5162,-10.37306 59.7233,-34 101.0206,-49.51209 15.1345,-5.68488 26.344,-8.43472 31.2107,-7.65653 12.265,1.96121 28.6419,17.20541 32.86,30.58714 2.4123,7.65337 0.9118,18.08012 -4.0456,28.108 -4.8852,9.88197 -21.0348,34.17744 -36.141,54.36934 -24.9973,33.41357 -35.5568,45.03308 -45.143,49.67356 -4.546,2.2007 -5.5139,2.27949 -20.6032,1.67699 -8.7082,-0.34755 -18.1136,-0.89951 -20.8998,-1.22619 l -5.0667,-0.59404 -34.4529,28.01391 c -107.6839,87.55817 -134.2655,109.3097 -134.2655,109.86837 0,0.34079 5.3005,8.12988 11.7781,17.30899 22.6739,32.12907 24.692,41.47919 11.9911,55.5561 -6.22,6.89405 -17.2671,14.68069 -23.1743,16.33458 -7.2327,2.02496 -11.1748,0.72892 -18.2427,-5.99711 -7.9124,-7.52968 -9.1238,-8.10473 -18.6108,-8.83633 -7.3363,-0.56573 -8.1056,-0.43507 -10.7285,1.8208 -2.5646,2.20627 -3.0506,3.78283 -5.2696,17.10697 -4.9306,29.60945 -7.5016,36.721403 -16.3661,45.267232 -32.2189,31.062289 -148.5674,121.509521 -173.0544,134.529401 -6.4232,3.415114 -13.9995,3.446826 -22.1575,0.09271 z"
         style="fill:#ffffff" />
    </g>
    <g
       id="g4329"
       inkscape:export-xdpi="80"
       inkscape:export-ydpi="80">
      <circle
         inkscape:export-ydpi="80"
         inkscape:export-xdpi="80"
         style="opacity:1;fill:#5f4722;fill-opacity:1;stroke:none;stroke-width:10;stroke-linecap:square;stroke-linejoin:round;stroke-miterlimit:4;stroke-dasharray:none;stroke-opacity:1"
         id="circle5688"
         cx="3423.946"
         cy="-259.79138"
         r="540.85126" />
      <g
         inkscape:export-ydpi="80"
         inkscape:export-xdpi="80"
         style="fill:#ffffff"
         transform="matrix(2.590047,0,0,2.590047,3096.7661,-562.4107)"
         id="g5667">
        <g
           style="fill:#ffffff"
           id="g5623">
          <path
             inkscape:connector-curvature="0"
             style="fill:#ffffff"
             d="m 235.143,17.081 -217.643,0 C 7.851,17.081 0,24.932 0,34.581 l 0,147.658 c 0,9.649 7.851,17.5 17.5,17.5 l 126.911,0 -3.832,23.37 c -0.721,4.399 0.734,8.384 3.893,10.658 3.158,2.274 7.396,2.396 11.341,0.317 l 27.381,-14.412 c 0.764,-0.392 2.869,-0.392 3.633,0 l 27.381,14.412 c 1.873,0.986 3.813,1.477 5.672,1.477 2.056,0 4.012,-0.601 5.67,-1.795 3.158,-2.274 4.613,-6.26 3.893,-10.659 l -3.831,-23.369 9.532,0 c 9.649,0 17.5,-7.851 17.5,-17.5 l 0,-147.657 c -0.001,-9.65 -7.852,-17.5 -17.501,-17.5 z m -50.132,152.662 c -16.817,0 -30.5,-13.683 -30.5,-30.5 0,-16.817 13.683,-30.5 30.5,-30.5 16.817,0 30.5,13.683 30.5,30.5 0,16.817 -13.683,30.5 -30.5,30.5 z m 8.803,36.656 c -5.101,-2.686 -12.506,-2.686 -17.606,0 l -19.358,10.189 6.154,-37.539 c 6.527,3.623 14.029,5.693 22.008,5.693 7.979,0 15.48,-2.071 22.008,-5.693 l 2.398,14.635 c 0.006,0.024 0.008,0.05 0.013,0.074 l 3.743,22.831 -19.36,-10.19 z m 43.829,-24.16 c 0,1.355 -1.145,2.5 -2.5,2.5 l -11.991,0 -2.739,-16.709 c -0.011,-0.066 -0.029,-0.129 -0.042,-0.195 6.335,-7.818 10.141,-17.768 10.141,-28.592 0,-25.089 -20.411,-45.5 -45.5,-45.5 -25.089,0 -45.5,20.411 -45.5,45.5 0,10.824 3.806,20.772 10.141,28.592 -0.013,0.065 -0.031,0.129 -0.042,0.194 l -2.741,16.723 c -0.084,-0.003 -0.165,-0.013 -0.249,-0.013 l -129.121,0 c -1.355,0 -2.5,-1.145 -2.5,-2.5 L 15,34.581 c 0,-1.355 1.145,-2.5 2.5,-2.5 l 217.643,0 c 1.355,0 2.5,1.145 2.5,2.5 l 0,147.658 z"
             id="path5625" />
          <path
             inkscape:connector-curvature="0"
             style="fill:#ffffff"
             d="m 208.619,60.243 -170,0 c -4.143,0 -7.5,3.357 -7.5,7.5 0,4.143 3.357,7.5 7.5,7.5 l 170,0 c 4.143,0 7.5,-3.357 7.5,-7.5 0,-4.143 -3.357,-7.5 -7.5,-7.5 z"
             id="path5627" />
          <path
             inkscape:connector-curvature="0"
             style="fill:#ffffff"
             d="m 110.619,100.911 -72,0 c -4.143,0 -7.5,3.357 -7.5,7.5 0,4.143 3.357,7.5 7.5,7.5 l 72,0 c 4.143,0 7.5,-3.357 7.5,-7.5 0,-4.143 -3.357,-7.5 -7.5,-7.5 z"
             id="path5629" />
        </g>
        <g
           style="fill:#ffffff"
           id="g5631" />
        <g
           style="fill:#ffffff"
           id="g5633" />
        <g
           style="fill:#ffffff"
           id="g5635" />
        <g
           style="fill:#ffffff"
           id="g5637" />
        <g
           style="fill:#ffffff"
           id="g5639" />
        <g
           style="fill:#ffffff"
           id="g5641" />
        <g
           style="fill:#ffffff"
           id="g5643" />
        <g
           style="fill:#ffffff"
           id="g5645" />
        <g
           style="fill:#ffffff"
           id="g5647" />
        <g
           style="fill:#ffffff"
           id="g5649" />
        <g
           style="fill:#ffffff"
           id="g5651" />
        <g
           style="fill:#ffffff"
           id="g5653" />
        <g
           style="fill:#ffffff"
           id="g5655" />
        <g
           style="fill:#ffffff"
           id="g5657" />
        <g
           style="fill:#ffffff"
           id="g5659" />
      </g>
    </g>
    <g
       id="g4356">
      <circle
         inkscape:export-ydpi="80"
         inkscape:export-xdpi="80"
         r="540.85126"
         cy="-239.79138"
         cx="810.61279"
         id="circle5848"
         style="opacity:1;fill:#5f4722;fill-opacity:1;stroke:none;stroke-width:10;stroke-linecap:square;stroke-linejoin:round;stroke-miterlimit:4;stroke-dasharray:none;stroke-opacity:1" />
      <g
         inkscape:export-ydpi="80"
         inkscape:export-xdpi="80"
         style="fill:#ffffff"
         transform="matrix(1.345262,0,0,1.345262,398.9621,-651.44167)"
         id="g5829">
        <g
           style="fill:#ffffff"
           id="g5789">
          <path
             style="fill:#ffffff"
             inkscape:connector-curvature="0"
             d="m 289.052,191.691 -36.224,87.974 c -1.228,2.983 -4.017,5.033 -7.23,5.315 L 60.311,301.262 c -4.546,0.399 -7.996,4.266 -7.877,8.826 l 3.768,145.442 c 0.104,3.999 2.941,7.403 6.856,8.228 l 218.13,45.882 c 5.333,1.122 10.753,1.677 16.173,1.665 l 0.004,-43.135 0,-274.834 c -0.002,-12.006 -3.742,-12.746 -8.313,-1.645 z m -25.365,271.232 -81.886,-13.187 0,-42.921 81.886,0 0,56.108 z M 227.882,264.073 9.518,286.138 c -6.671,0.674 -11.532,-6.18 -8.69,-12.252 L 58.973,149.6 c 1.183,-2.529 3.516,-4.331 6.262,-4.835 l 239.934,-44.069 -70.262,158.29 c -1.258,2.833 -3.939,4.775 -7.025,5.087 z m 323.807,37.189 -185.286,-16.281 c -3.214,-0.282 -6.003,-2.332 -7.23,-5.315 l -36.225,-87.974 c -4.571,-11.102 -8.312,-10.362 -8.312,1.644 l 0,274.833 0.004,43.135 c 5.419,0.013 10.84,-0.543 16.174,-1.665 l 218.13,-45.882 c 3.915,-0.824 6.752,-4.229 6.855,-8.228 l 3.768,-145.441 c 0.119,-4.561 -3.333,-8.427 -7.878,-8.826 z m -76.252,77.686 -10.233,0.283 -0.207,64.406 c -0.009,2.837 -2.891,5.55 -6.475,6.065 l -16.771,2.412 c -3.831,0.551 -6.966,-1.412 -6.959,-4.392 l 0.156,-67.651 -11.705,0.324 c -5.691,0.157 -9.292,-4.406 -6.395,-8.183 l 27.837,-36.274 c 2.637,-3.438 9.109,-3.121 11.651,0.501 l 24.435,34.825 c 2.316,3.303 -0.613,7.552 -5.334,7.684 z m 127.044,-92.81 -218.364,-22.065 c -3.086,-0.312 -5.768,-2.254 -7.025,-5.088 l -70.261,-158.29 239.934,44.069 c 2.746,0.504 5.079,2.306 6.263,4.835 l 58.145,124.286 c 2.841,6.073 -2.021,12.927 -8.692,12.253 z"
             id="path5791" />
        </g>
        <g
           style="fill:#ffffff"
           id="g5793" />
        <g
           style="fill:#ffffff"
           id="g5795" />
        <g
           style="fill:#ffffff"
           id="g5797" />
        <g
           style="fill:#ffffff"
           id="g5799" />
        <g
           style="fill:#ffffff"
           id="g5801" />
        <g
           style="fill:#ffffff"
           id="g5803" />
        <g
           style="fill:#ffffff"
           id="g5805" />
        <g
           style="fill:#ffffff"
           id="g5807" />
        <g
           style="fill:#ffffff"
           id="g5809" />
        <g
           style="fill:#ffffff"
           id="g5811" />
        <g
           style="fill:#ffffff"
           id="g5813" />
        <g
           style="fill:#ffffff"
           id="g5815" />
        <g
           style="fill:#ffffff"
           id="g5817" />
        <g
           style="fill:#ffffff"
           id="g5819" />
        <g
           style="fill:#ffffff"
           id="g5821" />
      </g>
    </g>
    <g
       id="g4308"
       inkscape:export-xdpi="80"
       inkscape:export-ydpi="80">
      <circle
         inkscape:export-ydpi="80"
         inkscape:export-xdpi="80"
         style="opacity:1;fill:#5f4722;fill-opacity:1;stroke:none;stroke-width:10;stroke-linecap:square;stroke-linejoin:round;stroke-miterlimit:4;stroke-dasharray:none;stroke-opacity:1"
         id="circle5989"
         cx="4730.6128"
         cy="-239.79132"
         r="540.85126" />
      <g
         inkscape:export-ydpi="80"
         inkscape:export-xdpi="80"
         style="fill:#ffffff"
         transform="matrix(1.4983764,0,0,1.4983764,4359.2985,-580.40656)"
         id="g5970">
        <g
           style="fill:#ffffff"
           id="g5930">
          <path
             inkscape:connector-curvature="0"
             style="fill:#ffffff"
             d="m 495.622,113.089 0,150.03 c 0,0 -32.11,6.326 -38.725,7.158 -6.594,0.83 -27.316,7.521 -42.334,-6.914 -23.16,-22.197 -105.447,-104.03 -105.447,-104.03 0,0 -14.188,-13.922 -36.969,-1.89 -20.912,11.022 -51.911,27.175 -64.859,33.465 -24.477,13.028 -44.764,-7.642 -44.764,-23.387 0,-12.213 7.621,-20.502 18.515,-26.598 29.524,-17.898 91.752,-52.827 117.67,-66.598 15.754,-8.379 27.105,-9.097 48.734,9.124 26.638,22.403 50.344,42.824 50.344,42.824 0,0 7.732,6.453 20.063,3.854 30.28,-6.402 77.772,-17.038 77.772,-17.038 z M 168.098,367.3 c 3.985,-10.238 2.653,-21.689 -4.987,-29.545 -6.865,-7.027 -16.888,-8.879 -26.445,-6.689 2.673,-9.479 1.197,-19.568 -5.705,-26.688 -6.886,-7.009 -16.89,-8.898 -26.446,-6.688 2.653,-9.465 1.181,-19.553 -5.725,-26.652 -10.814,-11.092 -29.519,-10.616 -41.807,1.097 -12.223,11.729 -20.053,32.979 -9.144,45.487 10.891,12.445 23.405,4.873 32.945,2.699 -2.654,9.465 -10.606,18.269 -0.813,30.658 9.784,12.395 23.404,4.875 32.954,2.721 -2.663,9.429 -10.268,19.117 -0.851,30.604 9.502,11.522 25.065,5.383 35.344,2.19 -3.967,10.199 -12.458,21.193 -1.549,33.513 10.892,12.409 36.063,6.668 48.358,-5.063 12.262,-11.729 13.439,-30.318 2.654,-41.445 -7.446,-7.634 -18.546,-9.41 -28.783,-6.199 z m 224.344,-78.054 c -88.88,-88.881 -47.075,-47.058 -94.906,-94.992 0,0 -14.375,-14.311 -33.321,-5.998 -13.3,5.828 -30.423,13.771 -43.307,19.835 -14.158,7.424 -24.347,9.722 -29.131,9.69 -27.37,-0.179 -49.576,-22.178 -49.576,-49.521 0,-17.738 9.417,-33.181 23.462,-41.947 19.75,-13.667 65.21,-37.847 65.21,-37.847 0,0 -13.849,-17.549 -44.187,-17.549 -30.329,0 -93.695,41.512 -93.695,41.512 0,0 -17.976,11.514 -43.601,1.143 L 0,96.373 0,268.05 c 0,0 14.103,4.082 26.775,9.258 2.862,-8.162 7.48,-15.699 13.886,-21.924 21.023,-20.024 55.869,-20.232 74.996,-0.537 5.762,5.987 9.783,13.129 11.835,21.024 7.707,2.379 14.688,6.593 20.298,12.373 5.779,5.947 9.785,13.129 11.854,20.984 7.698,2.381 14.669,6.611 20.298,12.395 6.339,6.537 10.562,14.433 12.534,22.988 8.047,2.344 15.319,6.705 21.176,12.693 11.495,11.807 15.575,27.826 13.103,43.278 0.02,0 0.058,0 0.076,0.035 0.188,0.246 7.122,7.976 11.446,12.336 8.474,8.482 22.311,8.482 30.811,0 8.444,-8.479 8.481,-22.289 0,-30.811 -0.304,-0.303 -30.572,-31.963 -28.136,-34.418 2.418,-2.438 40.981,37.688 41.699,38.422 8.463,8.465 22.291,8.465 30.792,0 8.481,-8.479 8.463,-22.289 0,-30.791 -0.416,-0.396 -2.152,-2.059 -2.796,-2.721 0,0 -38.234,-34.06 -35.324,-36.97 2.946,-2.928 50.438,41.392 50.515,41.392 8.537,7.688 21.687,7.631 29.9,-0.586 7.991,-7.99 8.162,-20.629 1.078,-29.146 -0.15,-0.453 -36.194,-38.121 -33.381,-40.955 2.854,-2.871 38.519,33.853 38.594,33.929 8.444,8.463 22.291,8.463 30.792,0 8.463,-8.464 8.463,-22.291 0,-30.83 -0.115,-0.072 -0.266,-0.148 -0.379,-0.222 z"
             id="path5932" />
        </g>
        <g
           style="fill:#ffffff"
           id="g5934" />
        <g
           style="fill:#ffffff"
           id="g5936" />
        <g
           style="fill:#ffffff"
           id="g5938" />
        <g
           style="fill:#ffffff"
           id="g5940" />
        <g
           style="fill:#ffffff"
           id="g5942" />
        <g
           style="fill:#ffffff"
           id="g5944" />
        <g
           style="fill:#ffffff"
           id="g5946" />
        <g
           style="fill:#ffffff"
           id="g5948" />
        <g
           style="fill:#ffffff"
           id="g5950" />
        <g
           style="fill:#ffffff"
           id="g5952" />
        <g
           style="fill:#ffffff"
           id="g5954" />
        <g
           style="fill:#ffffff"
           id="g5956" />
        <g
           style="fill:#ffffff"
           id="g5958" />
        <g
           style="fill:#ffffff"
           id="g5960" />
        <g
           style="fill:#ffffff"
           id="g5962" />
      </g>
    </g>
  </g>
</svg>
