<?xml version="1.0" encoding="utf-8"?>
<!-- Generator: Adobe Illustrator 19.0.0, SVG Export Plug-In . SVG Version: 6.00 Build 0)  -->
<svg version="1.1" id="Layer_1" xmlns="http://www.w3.org/2000/svg" xmlns:xlink="http://www.w3.org/1999/xlink" x="0px" y="0px"
	 viewBox="0 0 700 350" style="enable-background:new 0 0 700 350;" xml:space="preserve">
<style type="text/css">
	.st0{fill:#3F51B5;}
	.st1{fill:#303F9F;stroke:#303F9F;stroke-width:3;stroke-miterlimit:10;}
	.st2{fill:#3949AB;stroke:#3949AB;stroke-width:3;stroke-miterlimit:10;}
	.st3{fill:#3F51B5;stroke:#303F9F;stroke-width:1.8545;stroke-miterlimit:10;}
	.st4{fill:#3949AB;stroke:#303F9F;stroke-width:1.8545;stroke-miterlimit:10;}
	.st5{fill:#303F9F;}
	.st6{fill:#3949AB;}
	.st7{fill:#303F9F;stroke:#303F9F;stroke-width:0.7838;stroke-miterlimit:10;}
</style>
<rect id="XMLID_13_" class="st0" width="700" height="350"/>
<path id="XMLID_1_" class="st1" d="M275.3,371.2H82.8c-2.8,0-5-2.2-5-5V102.3c0-2.8,2.2-5,5-5h192.5c2.8,0,5,2.2,5,5v263.9
	C280.3,369,278,371.2,275.3,371.2z"/>
<path id="XMLID_2_" class="st2" d="M305.3,403.6H112.8c-2.8,0-5-2.2-5-5V134.7c0-2.8,2.2-5,5-5h192.5c2.8,0,5,2.2,5,5v263.9
	C310.3,401.3,308,403.6,305.3,403.6z"/>
<path id="XMLID_23_" class="st1" d="M128.9,150l2.8-2.8c0.4-0.4,0.4-1,0-1.4l-1.4-1.4c-0.4-0.4-1-0.4-1.4,0l-3.4,3.4l-2.2,2.2
	c-0.4,0.4-0.4,1,0,1.4l2.5,2.5l3.2,3.2c0.4,0.4,1,0.4,1.4,0l1.4-1.4c0.4-0.4,0.4-1,0-1.4l-2.8-2.8
	C128.5,151.1,128.5,150.4,128.9,150z"/>
<path id="XMLID_21_" class="st1" d="M142.4,150l-2.8-2.8c-0.4-0.4-0.4-1,0-1.4l1.4-1.4c0.4-0.4,1-0.4,1.4,0l3.4,3.4l2.2,2.2
	c0.4,0.4,0.4,1,0,1.4l-2.5,2.5l-3.2,3.2c-0.4,0.4-1,0.4-1.4,0l-1.4-1.4c-0.4-0.4-0.4-1,0-1.4l2.8-2.8
	C142.8,151.1,142.8,150.4,142.4,150z"/>
<path id="XMLID_7_" class="st1" d="M261.8,184h-116c-1.1,0-2-0.9-2-2v-6c0-1.1,0.9-2,2-2h116c1.1,0,2,0.9,2,2v6
	C263.8,183.1,262.9,184,261.8,184z"/>
<path id="XMLID_3_" class="st1" d="M261.8,199h-116c-1.1,0-2-0.9-2-2v-6c0-1.1,0.9-2,2-2h116c1.1,0,2,0.9,2,2v6
	C263.8,198.1,262.9,199,261.8,199z"/>
<path id="XMLID_4_" class="st1" d="M261.8,214h-116c-1.1,0-2-0.9-2-2v-6c0-1.1,0.9-2,2-2h116c1.1,0,2,0.9,2,2v6
	C263.8,213.1,262.9,214,261.8,214z"/>
<path id="XMLID_5_" class="st1" d="M261.8,229h-116c-1.1,0-2-0.9-2-2v-6c0-1.1,0.9-2,2-2h116c1.1,0,2,0.9,2,2v6
	C263.8,228.1,262.9,229,261.8,229z"/>
<path id="XMLID_6_" class="st1" d="M261.8,244h-116c-1.1,0-2-0.9-2-2v-6c0-1.1,0.9-2,2-2h116c1.1,0,2,0.9,2,2v6
	C263.8,243.1,262.9,244,261.8,244z"/>
<path id="XMLID_12_" class="st1" d="M261.8,271h-116c-1.1,0-2-0.9-2-2v-6c0-1.1,0.9-2,2-2h116c1.1,0,2,0.9,2,2v6
	C263.8,270.1,262.9,271,261.8,271z"/>
<path id="XMLID_11_" class="st1" d="M261.8,286h-116c-1.1,0-2-0.9-2-2v-6c0-1.1,0.9-2,2-2h116c1.1,0,2,0.9,2,2v6
	C263.8,285.1,262.9,286,261.8,286z"/>
<path id="XMLID_10_" class="st1" d="M261.8,301h-116c-1.1,0-2-0.9-2-2v-6c0-1.1,0.9-2,2-2h116c1.1,0,2,0.9,2,2v6
	C263.8,300.1,262.9,301,261.8,301z"/>
<g id="XMLID_8_">
	<g id="XMLID_9_">
		<g id="XMLID_14_">
			<g id="XMLID_16_">
				<path id="XMLID_26_" class="st3" d="M501,145.6l-2.7,2.7c-2.9,2.9-7.7,2.9-10.6,0l-15.9-15.9c-2.9-2.9-2.9-7.7,0-10.6l2.7-2.7
					c2.9-2.9,7.7-2.9,10.6,0L501,135C504,137.9,504,142.7,501,145.6z"/>
				<path id="XMLID_25_" class="st3" d="M489.8,64.1c20.1,20.1,20.1,52.8,0,72.9s-52.8,20.1-72.9,0s-20.1-52.8,0-72.9
					S469.6,43.9,489.8,64.1"/>
				<path id="XMLID_22_" class="st4" d="M479.8,74c14.6,14.7,14.6,38.4,0,53.1c-14.7,14.7-38.4,14.7-53.1,0
					c-14.6-14.6-14.6-38.4,0-53.1S465.2,59.4,479.8,74"/>
			</g>
		</g>
	</g>
</g>
<rect id="XMLID_15_" x="344.2" y="213.8" transform="matrix(0.5736 0.8192 -0.8192 0.5736 354.6162 -233.6324)" class="st5" width="115" height="20"/>
<path id="XMLID_18_" class="st6" d="M361.3,163l15.6,7.9l-16.4,11.5l-2.1-17.4C358.2,163.5,359.9,162.3,361.3,163z"/>
<path id="XMLID_17_" class="st6" d="M431.9,284.3l-5.4-7.7l16.4-11.5l5.4,7.7c0.6,0.9,0.4,2.2-0.5,2.8l-13.1,9.2
	C433.8,285.5,432.5,285.2,431.9,284.3z"/>
<path id="XMLID_19_" class="st6" d="M430.8,261.5l-54.7-78.1c-0.3-0.5-0.2-1.1,0.2-1.4l0.1-0.1c0.5-0.3,1.1-0.2,1.4,0.2l54.7,78.1
	c0.3,0.5,0.2,1.1-0.2,1.4l-0.1,0.1C431.7,262.1,431.1,262,430.8,261.5z"/>
<path id="XMLID_20_" class="st6" d="M425.7,265.1L371,187c-0.3-0.5-0.2-1.1,0.2-1.4l0.1-0.1c0.5-0.3,1.1-0.2,1.4,0.2l54.7,78.1
	c0.3,0.5,0.2,1.1-0.2,1.4l-0.1,0.1C426.7,265.6,426,265.5,425.7,265.1z"/>
<path id="XMLID_24_" class="st7" d="M594.3,254.1h-69.2c-2.8,0-5-2.2-5-5v-37.8c0-2.8,2.2-5,5-5h69.2c2.8,0,5,2.2,5,5v37.8
	C599.3,251.9,597.1,254.1,594.3,254.1z"/>
<path id="XMLID_27_" class="st2" d="M595.6,261L555,205.1c-1.6-2.2-1.1-5.4,1.1-7l30.6-22.2c2.2-1.6,5.4-1.1,7,1.1l40.6,55.9
	c1.6,2.2,1.1,5.4-1.1,7l-30.6,22.2C600.4,263.8,597.3,263.3,595.6,261z"/>
</svg>
