<?xml version="1.0" encoding="utf-8"?>
<!-- Generator: Adobe Illustrator 19.0.0, SVG Export Plug-In . SVG Version: 6.00 Build 0)  -->
<svg version="1.1" id="Layer_1" xmlns="http://www.w3.org/2000/svg" xmlns:xlink="http://www.w3.org/1999/xlink" x="0px" y="0px"
	 viewBox="0 0 700 350" style="enable-background:new 0 0 700 350;" xml:space="preserve">
<style type="text/css">
	.st0{fill:#2196F3;}
	.st1{fill:none;stroke:#1976D2;stroke-width:2.6548;stroke-miterlimit:10;}
	.st2{clip-path:url(#XMLID_45_);fill:none;stroke:#1976D2;stroke-width:2.6548;stroke-miterlimit:10;}
	.st3{fill:#1976D2;stroke:#1976D2;stroke-width:2.6548;stroke-miterlimit:10;}
	.st4{fill:#1976D2;}
</style>
<rect id="XMLID_12_" class="st0" width="700" height="350"/>
<g id="XMLID_7_">
	<g id="XMLID_8_">
		<g id="XMLID_10_">
			<g id="XMLID_54_">
				<path id="XMLID_60_" class="st1" d="M506.6,59.6H193.4c-4.6,0-8.2,3.7-8.2,8.2v197.8h329.6V67.9
					C514.8,63.3,511.1,59.6,506.6,59.6"/>
				<path id="XMLID_59_" class="st1" d="M495.2,250.2H204.8c-2.3,0-4.1-1.8-4.1-4.1V79.2c0-2.3,1.8-4.1,4.1-4.1h290.5
					c2.3,0,4.1,1.8,4.1,4.1v166.9C499.4,248.4,497.5,250.2,495.2,250.2"/>
			</g>
			<g id="XMLID_32_">
				<path id="XMLID_43_" class="st1" d="M551.9,290.4H148.1c-2.3,0-4.1-1.8-4.1-4.1v-16.5c0-2.3,1.8-4.1,4.1-4.1h403.8
					c2.3,0,4.1,1.8,4.1,4.1v16.5C556,288.5,554.2,290.4,551.9,290.4"/>
				<g id="XMLID_39_">
					<g id="XMLID_40_">
						<defs>
							<path id="XMLID_41_" d="M310.6,273.9h78.9c1,0,1.8-0.8,1.8-1.8v-4.7c0-1-0.8-1.8-1.8-1.8h-78.9c-1,0-1.8,0.8-1.8,1.8v4.7
								C308.8,273.1,309.6,273.9,310.6,273.9z"/>
						</defs>
						<clipPath id="XMLID_45_">
							<use xlink:href="#XMLID_41_"  style="overflow:visible;"/>
						</clipPath>
						<path id="XMLID_42_" class="st2" d="M383,273.9H317c-4.6,0-8.2-3.7-8.2-8.2h82.4C391.2,270.2,387.5,273.9,383,273.9"/>

							<use xlink:href="#XMLID_41_"  style="overflow:visible;fill:none;stroke:#1976D2;stroke-width:2.6548;stroke-miterlimit:10;"/>
					</g>
				</g>
			</g>
		</g>
	</g>
</g>
<path id="XMLID_9_" class="st1" d="M440.6,198.4H259.4c-1.1,0-2-0.9-2-2v-14.5c0-1.1,0.9-2,2-2h181.3c1.1,0,2,0.9,2,2v14.5
	C442.6,197.5,441.7,198.4,440.6,198.4z"/>
<path id="XMLID_11_" class="st3" d="M383.3,198.4H259.4c-1.1,0-2-0.9-2-2v-14.5c0-1.1,0.9-2,2-2h123.9c1.1,0,2,0.9,2,2v14.5
	C385.3,197.5,384.4,198.4,383.3,198.4z"/>
<g id="XMLID_16_">
	<g id="layer1_4_">
		<path id="path4263_4_" class="st1" d="M335.4,121.8c-1,0-1.9,0-2.6,0.7c-1,1-0.9,3.8-0.7,5.3c-1.2,0.3-2.5,0.7-3.6,1.3
			c-0.9-1.3-2.6-3.4-4-3.6c-1-0.1-1.8,0.6-2.5,1.3c-0.7,0.6-1.5,1.3-1.5,2.2c-0.1,1.4,1.7,3.5,2.8,4.5c-0.8,1.1-1.4,2.2-1.9,3.4
			c-1.5-0.4-4.1-1-5.3-0.2c-0.8,0.6-1,1.6-1.1,2.6c-0.1,1-0.3,1.9,0.2,2.7c0.8,1.1,3.5,1.5,5,1.7c0.1,1.3,0.3,2.6,0.7,3.9
			c-1.4,0.7-3.7,2-4.1,3.3c-0.3,1,0.2,1.8,0.8,2.7c0.5,0.8,1,1.7,1.9,1.9c1.3,0.3,3.6-1.1,4.9-1.9c0.4,0.5,0.9,1,1.4,1.4
			c0.5,0.4,1,0.8,1.6,1.1c-0.6,1.4-1.6,3.9-1.1,5.2c0.4,0.9,1.4,1.3,2.4,1.6c0.9,0.3,1.8,0.6,2.6,0.2c1.2-0.6,2.1-3.2,2.5-4.7
			c1.3,0.2,2.6,0.2,3.8,0c0.4,1.5,1.3,4.1,2.5,4.7c0.9,0.4,1.9,0.1,2.8-0.3c0.9-0.4,1.8-0.7,2.2-1.6c0.6-1.3-0.4-3.8-1.1-5.2
			c1.1-0.7,2.1-1.6,2.9-2.5c1.3,0.9,3.6,2.3,4.9,2c0.9-0.2,1.5-1.1,2-2.1c0.5-0.9,0.9-1.7,0.7-2.6c-0.4-1.4-2.8-2.7-4.2-3.4
			c0.4-1.2,0.6-2.5,0.7-3.8c1.5-0.1,4.2-0.5,5.1-1.7c0.6-0.8,0.4-1.8,0.2-2.9c-0.2-1-0.4-1.9-1.1-2.5c-1.2-0.8-3.9-0.2-5.3,0.2
			c-0.5-1.2-1.1-2.3-1.9-3.3c1.1-1.1,2.9-3.2,2.8-4.6c-0.1-1-0.9-1.7-1.7-2.3c-0.8-0.6-1.5-1.2-2.4-1.1c-1.4,0.1-3.1,2.4-4,3.6
			c-1.1-0.6-2.4-1.1-3.6-1.3c0.1-1.5,0.2-4.3-0.7-5.3C337.5,121.8,336.5,121.8,335.4,121.8z M335.5,135.7c3.8,0,6.9,3.1,6.9,6.9
			c0,3.8-3.1,6.9-6.9,6.9s-6.9-3.1-6.9-6.9C328.6,138.8,331.7,135.7,335.5,135.7z"/>
	</g>
</g>
<g id="XMLID_13_">
	<g id="layer1_3_">
		<path id="path4263_3_" class="st1" d="M370.7,134.9c-0.7,0-1.3,0-1.8,0.5c-0.7,0.7-0.6,2.6-0.5,3.7c-0.9,0.2-1.7,0.5-2.5,0.9
			c-0.6-0.9-1.8-2.4-2.8-2.5c-0.7-0.1-1.2,0.4-1.8,0.9c-0.5,0.4-1,0.9-1.1,1.5c-0.1,1,1.2,2.4,1.9,3.2c-0.6,0.7-1,1.5-1.3,2.4
			c-1-0.3-2.9-0.7-3.7-0.1c-0.6,0.4-0.7,1.1-0.8,1.8c-0.1,0.7-0.2,1.3,0.2,1.9c0.6,0.8,2.4,1.1,3.5,1.2c0,0.9,0.2,1.8,0.5,2.7
			c-1,0.5-2.6,1.4-2.9,2.3c-0.2,0.7,0.2,1.3,0.5,1.9c0.3,0.6,0.7,1.2,1.3,1.3c0.9,0.2,2.5-0.7,3.4-1.4c0.3,0.3,0.6,0.7,1,1
			c0.3,0.3,0.7,0.6,1.1,0.8c-0.4,1-1.1,2.7-0.7,3.6c0.3,0.6,1,0.9,1.6,1.1c0.6,0.2,1.3,0.4,1.8,0.2c0.9-0.4,1.5-2.2,1.7-3.3
			c0.9,0.1,1.8,0.1,2.7,0c0.3,1,0.9,2.8,1.7,3.3c0.6,0.3,1.3,0.1,2-0.2c0.6-0.2,1.3-0.5,1.5-1.1c0.4-0.9-0.3-2.6-0.8-3.6
			c0.7-0.5,1.4-1.1,2-1.8c0.9,0.6,2.5,1.6,3.4,1.4c0.7-0.2,1-0.8,1.4-1.4c0.3-0.6,0.7-1.2,0.5-1.8c-0.3-1-2-1.9-2.9-2.3
			c0.3-0.9,0.4-1.8,0.5-2.7c1.1-0.1,3-0.4,3.5-1.2c0.4-0.6,0.3-1.3,0.1-2c-0.1-0.7-0.3-1.4-0.8-1.7c-0.8-0.6-2.7-0.1-3.7,0.1
			c-0.3-0.8-0.8-1.6-1.3-2.3c0.7-0.8,2-2.2,2-3.2c-0.1-0.7-0.6-1.2-1.2-1.6c-0.5-0.4-1-0.8-1.7-0.8c-1,0.1-2.2,1.6-2.8,2.5
			c-0.8-0.4-1.6-0.7-2.5-0.9c0.1-1.1,0.2-3-0.5-3.7C372.2,134.9,371.4,134.9,370.7,134.9z M370.8,144.6c2.7,0,4.8,2.2,4.8,4.8
			c0,2.7-2.2,4.8-4.8,4.8s-4.8-2.2-4.8-4.8C366,146.7,368.1,144.6,370.8,144.6z"/>
	</g>
</g>
<path id="XMLID_1_" class="st4" d="M155,86H99c-1.1,0-2-0.9-2-2v-6c0-1.1,0.9-2,2-2h56c1.1,0,2,0.9,2,2v6C157,85.1,156.1,86,155,86z
	"/>
<path id="XMLID_2_" class="st4" d="M155,101H39c-1.1,0-2-0.9-2-2v-6c0-1.1,0.9-2,2-2h116c1.1,0,2,0.9,2,2v6
	C157,100.1,156.1,101,155,101z"/>
<path id="XMLID_3_" class="st4" d="M155,116H39c-1.1,0-2-0.9-2-2v-6c0-1.1,0.9-2,2-2h116c1.1,0,2,0.9,2,2v6
	C157,115.1,156.1,116,155,116z"/>
<path id="XMLID_4_" class="st4" d="M155,131H39c-1.1,0-2-0.9-2-2v-6c0-1.1,0.9-2,2-2h116c1.1,0,2,0.9,2,2v6
	C157,130.1,156.1,131,155,131z"/>
<path id="XMLID_5_" class="st4" d="M155,146H39c-1.1,0-2-0.9-2-2v-6c0-1.1,0.9-2,2-2h116c1.1,0,2,0.9,2,2v6
	C157,145.1,156.1,146,155,146z"/>
<path id="XMLID_6_" class="st4" d="M155,161H39c-1.1,0-2-0.9-2-2v-6c0-1.1,0.9-2,2-2h116c1.1,0,2,0.9,2,2v6
	C157,160.1,156.1,161,155,161z"/>
<path id="XMLID_19_" class="st4" d="M95,176H39c-1.1,0-2-0.9-2-2v-6c0-1.1,0.9-2,2-2h56c1.1,0,2,0.9,2,2v6C97,175.1,96.1,176,95,176
	z"/>
<path id="XMLID_23_" class="st4" d="M89.5,80.3l2.8-2.8c0.4-0.4,0.4-1,0-1.4l-1.4-1.4c-0.4-0.4-1-0.4-1.4,0l-3.4,3.4l-2.2,2.2
	c-0.4,0.4-0.4,1,0,1.4l2.5,2.5l3.2,3.2c0.4,0.4,1,0.4,1.4,0l1.4-1.4c0.4-0.4,0.4-1,0-1.4l-2.8-2.8C89.1,81.4,89.1,80.7,89.5,80.3z"
	/>
<path id="XMLID_21_" class="st4" d="M104.2,170.3l-2.8-2.8c-0.4-0.4-0.4-1,0-1.4l1.4-1.4c0.4-0.4,1-0.4,1.4,0l3.4,3.4l2.2,2.2
	c0.4,0.4,0.4,1,0,1.4l-2.5,2.5l-3.2,3.2c-0.4,0.4-1,0.4-1.4,0l-1.4-1.4c-0.4-0.4-0.4-1,0-1.4l2.8-2.8
	C104.6,171.4,104.6,170.7,104.2,170.3z"/>
<path id="XMLID_20_" class="st4" d="M646.2,83.3h-75.9c-1.1,0-2-0.9-2-2v-6c0-1.1,0.9-2,2-2h75.9c1.1,0,2,0.9,2,2v6
	C648.2,82.4,647.3,83.3,646.2,83.3z"/>
<path id="XMLID_26_" class="st4" d="M552.4,78.7l-2.8-2.8c-0.4-0.4-1-0.4-1.4,0l-1.4,1.4c-0.4,0.4-0.4,1,0,1.4l3.4,3.4l2.3,2.3
	c0.4,0.4,1,0.4,1.4,0l1.9-1.9l7.2-7.2c0.4-0.4,0.4-1,0-1.4l-1.4-1.4c-0.4-0.4-1-0.4-1.4,0l-6.4,6.4
	C553.4,79.1,552.8,79.1,552.4,78.7z"/>
<path id="XMLID_24_" class="st4" d="M646.2,99.6h-75.9c-1.1,0-2-0.9-2-2v-6c0-1.1,0.9-2,2-2h75.9c1.1,0,2,0.9,2,2v6
	C648.2,98.7,647.3,99.6,646.2,99.6z"/>
<path id="XMLID_22_" class="st4" d="M552.4,95l-2.8-2.8c-0.4-0.4-1-0.4-1.4,0l-1.4,1.4c-0.4,0.4-0.4,1,0,1.4l3.4,3.4l2.3,2.3
	c0.4,0.4,1,0.4,1.4,0l1.9-1.9l7.2-7.2c0.4-0.4,0.4-1,0-1.4l-1.4-1.4c-0.4-0.4-1-0.4-1.4,0l-6.4,6.4C553.4,95.4,552.8,95.4,552.4,95z
	"/>
<path id="XMLID_27_" class="st4" d="M646.2,115.9h-75.9c-1.1,0-2-0.9-2-2v-6c0-1.1,0.9-2,2-2h75.9c1.1,0,2,0.9,2,2v6
	C648.2,115,647.3,115.9,646.2,115.9z"/>
<path id="XMLID_25_" class="st4" d="M552.4,111.3l-2.8-2.8c-0.4-0.4-1-0.4-1.4,0l-1.4,1.4c-0.4,0.4-0.4,1,0,1.4l3.4,3.4l2.3,2.3
	c0.4,0.4,1,0.4,1.4,0l1.9-1.9l7.2-7.2c0.4-0.4,0.4-1,0-1.4l-1.4-1.4c-0.4-0.4-1-0.4-1.4,0l-6.4,6.4
	C553.4,111.7,552.8,111.7,552.4,111.3z"/>
<path id="XMLID_29_" class="st4" d="M646.2,132.2h-75.9c-1.1,0-2-0.9-2-2v-6c0-1.1,0.9-2,2-2h75.9c1.1,0,2,0.9,2,2v6
	C648.2,131.3,647.3,132.2,646.2,132.2z"/>
<path id="XMLID_28_" class="st4" d="M552.4,127.6l-2.8-2.8c-0.4-0.4-1-0.4-1.4,0l-1.4,1.4c-0.4,0.4-0.4,1,0,1.4l3.4,3.4l2.3,2.3
	c0.4,0.4,1,0.4,1.4,0l1.9-1.9l7.2-7.2c0.4-0.4,0.4-1,0-1.4l-1.4-1.4c-0.4-0.4-1-0.4-1.4,0l-6.4,6.4C553.4,128,552.8,128,552.4,127.6
	z"/>
<path id="XMLID_38_" class="st4" d="M646.2,147.6h-75.9c-1.1,0-2-0.9-2-2v-6c0-1.1,0.9-2,2-2h75.9c1.1,0,2,0.9,2,2v6
	C648.2,146.7,647.3,147.6,646.2,147.6z"/>
<path id="XMLID_37_" class="st4" d="M552.4,143l-2.8-2.8c-0.4-0.4-1-0.4-1.4,0l-1.4,1.4c-0.4,0.4-0.4,1,0,1.4l3.4,3.4l2.3,2.3
	c0.4,0.4,1,0.4,1.4,0l1.9-1.9l7.2-7.2c0.4-0.4,0.4-1,0-1.4l-1.4-1.4c-0.4-0.4-1-0.4-1.4,0l-6.4,6.4
	C553.4,143.4,552.8,143.4,552.4,143z"/>
<path id="XMLID_36_" class="st4" d="M646.2,163.9h-75.9c-1.1,0-2-0.9-2-2v-6c0-1.1,0.9-2,2-2h75.9c1.1,0,2,0.9,2,2v6
	C648.2,163,647.3,163.9,646.2,163.9z"/>
<path id="XMLID_35_" class="st4" d="M552.4,159.3l-2.8-2.8c-0.4-0.4-1-0.4-1.4,0l-1.4,1.4c-0.4,0.4-0.4,1,0,1.4l3.4,3.4l2.3,2.3
	c0.4,0.4,1,0.4,1.4,0l1.9-1.9l7.2-7.2c0.4-0.4,0.4-1,0-1.4l-1.4-1.4c-0.4-0.4-1-0.4-1.4,0l-6.4,6.4
	C553.4,159.7,552.8,159.7,552.4,159.3z"/>
<path id="XMLID_34_" class="st4" d="M646.2,180.2h-75.9c-1.1,0-2-0.9-2-2v-6c0-1.1,0.9-2,2-2h75.9c1.1,0,2,0.9,2,2v6
	C648.2,179.3,647.3,180.2,646.2,180.2z"/>
<path id="XMLID_33_" class="st4" d="M552.4,175.6l-2.8-2.8c-0.4-0.4-1-0.4-1.4,0l-1.4,1.4c-0.4,0.4-0.4,1,0,1.4l3.4,3.4l2.3,2.3
	c0.4,0.4,1,0.4,1.4,0l1.9-1.9l7.2-7.2c0.4-0.4,0.4-1,0-1.4l-1.4-1.4c-0.4-0.4-1-0.4-1.4,0l-6.4,6.4C553.4,176,552.8,176,552.4,175.6
	z"/>
<path id="XMLID_31_" class="st4" d="M646.2,196.5h-75.9c-1.1,0-2-0.9-2-2v-6c0-1.1,0.9-2,2-2h75.9c1.1,0,2,0.9,2,2v6
	C648.2,195.6,647.3,196.5,646.2,196.5z"/>
<path id="XMLID_30_" class="st4" d="M552.4,191.9l-2.8-2.8c-0.4-0.4-1-0.4-1.4,0l-1.4,1.4c-0.4,0.4-0.4,1,0,1.4l3.4,3.4l2.3,2.3
	c0.4,0.4,1,0.4,1.4,0l1.9-1.9l7.2-7.2c0.4-0.4,0.4-1,0-1.4l-1.4-1.4c-0.4-0.4-1-0.4-1.4,0l-6.4,6.4
	C553.4,192.3,552.8,192.3,552.4,191.9z"/>
</svg>
